<svg xmlns="http://www.w3.org/2000/svg" width="936.277" height="1536.399" viewBox="0 0 936.277 1536.399">
  <g id="cs22logo_star_w" transform="translate(17400.852 -7624.677)">
    <g id="Cardano_logo_Black" data-name="Cardano logo Black" transform="translate(-16931.988 8056.579)">
      <g id="Group_228" data-name="Group 228" transform="translate(-467.414 -431.902)">
        <g id="Group_227" data-name="Group 227">
          <path id="Path_2574" data-name="Path 2574" d="M21.5,169.512a20.351,20.351,0,1,0,19.166,21.476A20.333,20.333,0,0,0,21.5,169.512Z" transform="translate(0 243.056)" fill="#f2f2f2"/>
          <path id="Path_2575" data-name="Path 2575" d="M105.3,211.087a63.059,63.059,0,0,0,59.274,66.435c1.222.063,2.432.1,3.625.1a62.959,62.959,0,1,0-62.9-66.54Z" transform="translate(150.875 217.563)" fill="#f2f2f2"/>
          <path id="Path_2576" data-name="Path 2576" d="M21.5,169.512a20.351,20.351,0,1,0,19.166,21.476A20.333,20.333,0,0,0,21.5,169.512Z" transform="translate(0 243.056)" fill="#f2f2f2"/>
          <path id="Path_2577" data-name="Path 2577" d="M120.991,48.74a20.351,20.351,0,1,0-27.333-9.018A20.356,20.356,0,0,0,120.991,48.74Z" transform="translate(131.192 14.649)" fill="#f2f2f2"/>
          <path id="Path_2578" data-name="Path 2578" d="M156.709,106.869a31.448,31.448,0,1,0-42.23-13.933A31.431,31.431,0,0,0,156.709,106.869Z" transform="translate(159.336 67.886)" fill="#f2f2f2"/>
          <path id="Path_2579" data-name="Path 2579" d="M48.45,131.266a25.9,25.9,0,1,0-7.456-35.848A25.895,25.895,0,0,0,48.45,131.266Z" transform="translate(52.706 120.059)" fill="#f2f2f2"/>
          <path id="Path_2580" data-name="Path 2580" d="M76.86,164.865a31.454,31.454,0,1,0,29.623,33.185A31.456,31.456,0,0,0,76.86,164.865Z" transform="translate(62.559 236.365)" fill="#f2f2f2"/>
          <path id="Path_2581" data-name="Path 2581" d="M51.361,253.287A25.9,25.9,0,1,0,86.144,264.75,25.893,25.893,0,0,0,51.361,253.287Z" transform="translate(53.232 359.26)" fill="#f2f2f2"/>
          <path id="Path_2582" data-name="Path 2582" d="M103,178.173A36.995,36.995,0,1,0,92.36,126.939,36.976,36.976,0,0,0,103,178.173Z" transform="translate(123.756 158.09)" fill="#f2f2f2"/>
          <path id="Path_2583" data-name="Path 2583" d="M260.781,104.8a31.455,31.455,0,1,0-9.048-43.549A31.446,31.446,0,0,0,260.781,104.8Z" transform="translate(353.63 67.455)" fill="#f2f2f2"/>
          <path id="Path_2584" data-name="Path 2584" d="M284.342,47.183A20.349,20.349,0,1,0,278.476,19,20.352,20.352,0,0,0,284.342,47.183Z" transform="translate(394.593 14.068)" fill="#f2f2f2"/>
          <path id="Path_2585" data-name="Path 2585" d="M293.646,151.545a62.951,62.951,0,0,0-7.161,125.7c1.207.063,2.424.1,3.624.1a62.949,62.949,0,0,0,3.537-125.8Z" transform="translate(325.716 217.182)" fill="#f2f2f2"/>
          <path id="Path_2586" data-name="Path 2586" d="M142.3,190.146a62.953,62.953,0,1,0,56.17-91.3,62.958,62.958,0,0,0-56.17,91.3Z" transform="translate(194.429 141.76)" fill="#f2f2f2"/>
          <path id="Path_2587" data-name="Path 2587" d="M363.206,132.117A25.9,25.9,0,1,0,328.42,120.64,25.916,25.916,0,0,0,363.206,132.117Z" transform="translate(467.014 119.145)" fill="#f2f2f2"/>
          <path id="Path_2588" data-name="Path 2588" d="M287.48,113.8a37,37,0,1,0,49.7,16.382A36.991,36.991,0,0,0,287.48,113.8Z" transform="translate(383.081 157.514)" fill="#f2f2f2"/>
          <path id="Path_2589" data-name="Path 2589" d="M205.449,51.765a25.9,25.9,0,1,0-24.395-27.328A25.9,25.9,0,0,0,205.449,51.765Z" transform="translate(259.596 0)" fill="#f2f2f2"/>
          <path id="Path_2590" data-name="Path 2590" d="M211.5,131.789a37.008,37.008,0,1,0-34.845-39.051A37.013,37.013,0,0,0,211.5,131.789Z" transform="translate(253.255 82.937)" fill="#f2f2f2"/>
          <path id="Path_2591" data-name="Path 2591" d="M140.168,284.686a37,37,0,1,0-49.683-16.4A37.012,37.012,0,0,0,140.168,284.686Z" transform="translate(124.085 307.811)" fill="#f2f2f2"/>
          <path id="Path_2592" data-name="Path 2592" d="M206.822,127.149a62.92,62.92,0,1,0,52.694-28.438A63.025,63.025,0,0,0,206.822,127.149Z" transform="translate(281.849 141.566)" fill="#f2f2f2"/>
          <path id="Path_2593" data-name="Path 2593" d="M315.947,238.931a62.967,62.967,0,1,0-27.886,84.543A62.669,62.669,0,0,0,315.947,238.931Z" transform="translate(282.156 292.975)" fill="#f2f2f2"/>
          <path id="Path_2594" data-name="Path 2594" d="M324.64,220.289a37,37,0,1,0,10.654,51.229A37.025,37.025,0,0,0,324.64,220.289Z" transform="translate(383.412 307.241)" fill="#f2f2f2"/>
          <path id="Path_2595" data-name="Path 2595" d="M377.435,197.466A31.455,31.455,0,1,0,344.25,227.08,31.465,31.465,0,0,0,377.435,197.466Z" transform="translate(451.144 235.502)" fill="#f2f2f2"/>
          <path id="Path_2596" data-name="Path 2596" d="M388.846,168.7A20.354,20.354,0,1,0,408,190.177,20.371,20.371,0,0,0,388.846,168.7Z" transform="translate(526.795 241.894)" fill="#f2f2f2"/>
          <path id="Path_2597" data-name="Path 2597" d="M366.118,254.115a25.9,25.9,0,1,0,7.461,35.86A25.887,25.887,0,0,0,366.118,254.115Z" transform="translate(467.543 358.347)" fill="#f2f2f2"/>
          <path id="Path_2598" data-name="Path 2598" d="M123.692,331.675a20.349,20.349,0,1,0,5.847,28.173A20.346,20.346,0,0,0,123.692,331.675Z" transform="translate(132.197 470.879)" fill="#f2f2f2"/>
          <path id="Path_2599" data-name="Path 2599" d="M287.029,330.115a20.346,20.346,0,1,0,27.343,9.014A20.343,20.343,0,0,0,287.029,330.115Z" transform="translate(395.601 470.301)" fill="#f2f2f2"/>
          <path id="Path_2600" data-name="Path 2600" d="M251.412,301.9a62.942,62.942,0,1,0-52.689,28.438A62.537,62.537,0,0,0,251.412,301.9Z" transform="translate(194.742 293.17)" fill="#f2f2f2"/>
          <path id="Path_2601" data-name="Path 2601" d="M160.32,287.141a31.452,31.452,0,1,0,9.06,43.549A31.45,31.45,0,0,0,160.32,287.141Z" transform="translate(160.079 404.408)" fill="#f2f2f2"/>
          <path id="Path_2602" data-name="Path 2602" d="M208.03,333.625a25.908,25.908,0,1,0,24.388,27.333A25.9,25.9,0,0,0,208.03,333.625Z" transform="translate(259.084 478.404)" fill="#f2f2f2"/>
          <path id="Path_2603" data-name="Path 2603" d="M215.055,266.69A37,37,0,1,0,249.9,305.74,37.007,37.007,0,0,0,215.055,266.69Z" transform="translate(252.346 382.384)" fill="#f2f2f2"/>
          <path id="Path_2604" data-name="Path 2604" d="M264.388,285.055a31.453,31.453,0,1,0,42.252,13.938A31.454,31.454,0,0,0,264.388,285.055Z" transform="translate(354.37 403.978)" fill="#f2f2f2"/>
        </g>
      </g>
    </g>
    <g id="Group_224" data-name="Group 224" transform="translate(-17400.852 8643.439)">
      <path id="Path_1449" data-name="Path 1449" d="M64.271,63.422q8.471,0,13.933-2.564a20.723,20.723,0,0,0,8.471-6.911A26.282,26.282,0,0,0,90.8,43.917a60.688,60.688,0,0,0,1.115-11.7V28.2h29.426v4.013q0,27.865-14.6,42.912T64.271,90.173q-26.751,0-42.355-16.273T6.311,26.417V-8.358a83.969,83.969,0,0,1,4.013-26.862A54.428,54.428,0,0,1,21.916-55.283,50.711,50.711,0,0,1,40.2-67.767a63.467,63.467,0,0,1,24.076-4.347A69.55,69.55,0,0,1,88.792-68.1a47.436,47.436,0,0,1,17.945,11.592,49.19,49.19,0,0,1,10.923,18.28,73.782,73.782,0,0,1,3.678,24.076v4.013H91.913v-4.013A47.612,47.612,0,0,0,90.576-25.3a29.191,29.191,0,0,0-4.458-10.031,23.167,23.167,0,0,0-8.471-7.245q-5.35-2.787-13.375-2.787a27.169,27.169,0,0,0-12.707,2.787A25.852,25.852,0,0,0,42.647-35a32.162,32.162,0,0,0-5.239,11.146,51.907,51.907,0,0,0-1.672,13.264V28.647A58.378,58.378,0,0,0,37.3,42.579a31.834,31.834,0,0,0,4.9,11.035,22.179,22.179,0,0,0,8.805,7.245A31.05,31.05,0,0,0,64.271,63.422Zm162.511-9.809H173.726l-7.579,33.438H135.383L172.611-68.993H227.9L265.124,87.052H234.361ZM179.968,25.526h40.349L202.26-54.28h-4.013ZM389.515,87.052H360.089V40.238a13.128,13.128,0,0,0-2.787-8.694q-2.786-3.344-9.251-3.344H314.167V87.052H284.741V-68.993h59.743a61.5,61.5,0,0,1,21.178,3.344,42.9,42.9,0,0,1,15.27,9.251,40.241,40.241,0,0,1,9.363,13.71,43.245,43.245,0,0,1,3.232,16.719v5.35A33.724,33.724,0,0,1,388.4-2.674q-5.127,8.36-15.827,12.818v4.013a18.751,18.751,0,0,1,12.372,6.019,18.71,18.71,0,0,1,4.57,12.929ZM314.167.113h28.088q10.7,0,16.273-5.016T364.1-19.059v-2.675a18.611,18.611,0,0,0-5.573-13.487q-5.573-5.684-16.273-5.684H314.167ZM415.151-68.993h56.622q28.98,0,43.024,13.487t14.044,41.8V31.767q0,28.311-14.044,41.8T471.773,87.052H415.151V58.741h14.713V-40.905H415.151ZM471.773,58.964q15.382,0,21.512-7.245t6.13-22.627v-42.8q0-13.375-6.13-20.286t-21.512-6.911H459.29V58.964Zm164.294-5.35H583.012l-7.579,33.438H544.669L581.9-68.993h55.285L674.41,87.052H643.647ZM589.254,25.526H629.6L611.546-54.28h-4.013ZM767.146,72.339h4.013V-68.993h29.426V87.052H743.07L724.79-54.28h-4.013V87.052H691.352V-68.993h57.514Zm57.737-80.7q0-30.317,15.27-47.036T882.4-72.114q26.974,0,42.244,16.719t15.27,47.036V26.417q0,31.209-15.27,47.482T882.4,90.173q-26.974,0-42.244-16.273t-15.27-47.482ZM882.4,63.422a30.885,30.885,0,0,0,13.375-2.564,22.358,22.358,0,0,0,8.694-7.245,29.046,29.046,0,0,0,4.681-11.146A70.547,70.547,0,0,0,910.485,28.2V-10.142a58.764,58.764,0,0,0-1.561-13.821,31.788,31.788,0,0,0-4.9-11.146,24.268,24.268,0,0,0-8.694-7.468,27.692,27.692,0,0,0-12.93-2.787,27.691,27.691,0,0,0-12.93,2.787,24.268,24.268,0,0,0-8.694,7.468,31.79,31.79,0,0,0-4.9,11.146,58.764,58.764,0,0,0-1.56,13.821V28.2a70.538,70.538,0,0,0,1.338,14.267,29.044,29.044,0,0,0,4.681,11.146,22.358,22.358,0,0,0,8.694,7.245A30.886,30.886,0,0,0,882.4,63.422ZM90.576,155.284a21.776,21.776,0,0,0-7.245-16.273q-7.245-6.911-20.4-6.911-11.146,0-17.611,4.57a14.385,14.385,0,0,0-6.465,12.372,16.45,16.45,0,0,0,1.56,7.245,14.867,14.867,0,0,0,5.462,5.8,41.667,41.667,0,0,0,10.254,4.57,135.743,135.743,0,0,0,16.162,3.79q24.521,4.458,37.451,14.936t12.93,30.986v2.675a48.2,48.2,0,0,1-3.9,19.729,41.579,41.579,0,0,1-11.258,15.047A51.3,51.3,0,0,1,89.684,263.4a77.567,77.567,0,0,1-23.63,3.344q-15.382,0-27.085-4.347A54.223,54.223,0,0,1,19.463,250.36,50.8,50.8,0,0,1,7.649,232.3a62.159,62.159,0,0,1-4.013-22.627v-6.688H33.062v5.35q0,14.044,8.137,22.4t25.3,8.36q13.375,0,19.84-5.8a17.959,17.959,0,0,0,6.465-13.821,19.894,19.894,0,0,0-1.338-7.245A15.4,15.4,0,0,0,86.786,206a32.522,32.522,0,0,0-9.14-5.016,80.4,80.4,0,0,0-14.713-3.79,148.751,148.751,0,0,1-21.623-5.239,60.174,60.174,0,0,1-17.054-8.582A36.947,36.947,0,0,1,13,170q-4.013-8.025-4.013-19.617v-1.338a40.455,40.455,0,0,1,3.9-17.722A42.93,42.93,0,0,1,23.81,117.164,50.47,50.47,0,0,1,40.753,107.8a69.171,69.171,0,0,1,22.181-3.344,71.349,71.349,0,0,1,24.521,3.9A52.682,52.682,0,0,1,105.4,118.947a44.23,44.23,0,0,1,10.923,15.382A46.438,46.438,0,0,1,120,152.609v8.025H90.576ZM256.43,107.578v102.1q0,26.751-14.156,41.909t-42.021,15.159q-27.865,0-42.021-15.159t-14.156-41.909v-102.1H173.5v102.1q0,13.821,6.465,21.623t20.286,7.8q13.821,0,20.286-7.8T227,209.676v-102.1Zm16.942,0H325.09l8.917,117.257v22.738h5.35V224.835l8.917-117.257h51.718V263.623H373.242V159.3l2.675-35.667h-5.35L358.975,263.623H314.836L302.8,123.629h-5.35l2.675,35.667V263.623H273.372Zm136.429,0h51.718l8.917,117.257v22.738h5.35V224.835L484.7,107.578h51.718V263.623H509.67V159.3l2.675-35.667H507L495.4,263.623H451.264L439.227,123.629h-5.35l2.675,35.667V263.623H409.8Zm147.575,0H661.7v28.088H624.252v99.869H661.7v28.088H557.376V235.535h37.451V135.666H557.376Zm132.416,0H802.145v28.088H760.681V263.623H731.255V135.666H689.792Z" transform="translate(-3.636 72.114)" fill="#f2f2f2"/>
      <path id="Path_1448" data-name="Path 1448" d="M113.467,69.664V87.052H7.8V60.3a44.968,44.968,0,0,1,3.567-18.614,38.89,38.89,0,0,1,10.143-13.6A56.613,56.613,0,0,1,37.45,18.615,137.506,137.506,0,0,1,58.628,12.15Q78.468,7.692,87.273-.556a26.706,26.706,0,0,0,8.805-20.286V-22.18a35.882,35.882,0,0,0-2.006-11.815,30.228,30.228,0,0,0-6.242-10.477A30.21,30.21,0,0,0,77.019-51.94,40.154,40.154,0,0,0,61.3-54.726q-17.165,0-26.639,10.477T25.189-16.384v9.809H6.464V-17.721A59.545,59.545,0,0,1,10.031-38.23,51.828,51.828,0,0,1,20.508-55.618,49.645,49.645,0,0,1,37.673-67.656,58.791,58.791,0,0,1,61.3-72.114q13.6,0,23.63,4.124a49.472,49.472,0,0,1,16.719,10.923,43.758,43.758,0,0,1,9.92,15.382,49.282,49.282,0,0,1,3.232,17.5v4.013q0,17.834-11.146,30.429T67.991,28.2q-21.4,4.681-31.432,12.372t-10.032,22.4v6.688ZM142-8.358q0-30.317,14.49-47.036T196.84-72.114q25.859,0,40.349,16.719t14.49,47.036V26.417q0,31.209-14.49,47.482T196.84,90.173q-25.859,0-40.349-16.273T142,26.417ZM196.84,73.231q18.057,0,27.085-12.6t9.028-35.556v-32.1a79.479,79.479,0,0,0-2.229-19.506,44.29,44.29,0,0,0-6.8-15.159,32.372,32.372,0,0,0-11.369-9.92,33.343,33.343,0,0,0-15.716-3.567,33.176,33.176,0,0,0-15.827,3.567,32.682,32.682,0,0,0-11.258,9.92,44.29,44.29,0,0,0-6.8,15.159,79.478,79.478,0,0,0-2.229,19.506v32.1q0,22.961,9.028,35.556T196.84,73.231Zm-14.267-64.2A13.711,13.711,0,0,1,186.808-1a14,14,0,0,1,20.063,0,13.711,13.711,0,0,1,4.236,10.031,13.711,13.711,0,0,1-4.236,10.031,14,14,0,0,1-20.063,0A13.711,13.711,0,0,1,182.573,9.029ZM386.324,69.664V87.052H280.659V60.3a44.969,44.969,0,0,1,3.567-18.614,38.89,38.89,0,0,1,10.143-13.6,56.614,56.614,0,0,1,15.939-9.474,137.508,137.508,0,0,1,21.178-6.465q19.84-4.458,28.646-12.707a26.706,26.706,0,0,0,8.805-20.286V-22.18a35.882,35.882,0,0,0-2.006-11.815,30.228,30.228,0,0,0-6.242-10.477,30.21,30.21,0,0,0-10.812-7.468,40.155,40.155,0,0,0-15.716-2.787q-17.165,0-26.639,10.477t-9.474,27.865v9.809H279.321V-17.721a59.544,59.544,0,0,1,3.567-20.509,51.828,51.828,0,0,1,10.477-17.388A49.645,49.645,0,0,1,310.53-67.656a58.791,58.791,0,0,1,23.63-4.458q13.6,0,23.63,4.124a49.472,49.472,0,0,1,16.719,10.923,43.756,43.756,0,0,1,9.92,15.382,49.283,49.283,0,0,1,3.232,17.5v4.013q0,17.834-11.146,30.429T340.848,28.2q-21.4,4.681-31.432,12.372t-10.032,22.4v6.688Zm136.429,0V87.052H417.087V60.3a44.969,44.969,0,0,1,3.567-18.614,38.89,38.89,0,0,1,10.143-13.6,56.614,56.614,0,0,1,15.939-9.474,137.5,137.5,0,0,1,21.178-6.465q19.84-4.458,28.646-12.707a26.706,26.706,0,0,0,8.805-20.286V-22.18a35.882,35.882,0,0,0-2.006-11.815,30.228,30.228,0,0,0-6.242-10.477A30.21,30.21,0,0,0,486.3-51.94a40.154,40.154,0,0,0-15.716-2.787q-17.165,0-26.639,10.477t-9.474,27.865v9.809H415.75V-17.721a59.544,59.544,0,0,1,3.567-20.509,51.828,51.828,0,0,1,10.477-17.388,49.645,49.645,0,0,1,17.165-12.038,58.791,58.791,0,0,1,23.63-4.458q13.6,0,23.63,4.124a49.472,49.472,0,0,1,16.719,10.923,43.757,43.757,0,0,1,9.92,15.382,49.282,49.282,0,0,1,3.232,17.5v4.013q0,17.834-11.146,30.429T477.276,28.2q-21.4,4.681-31.432,12.372t-10.031,22.4v6.688Z" transform="translate(-0.222 427.464)" fill="#f2f2f2"/>
    </g>
  </g>
</svg>
