<svg width="110" height="97" viewBox="0 0 110 97" fill="none" xmlns="http://www.w3.org/2000/svg">
                <path d="M53.261 0.297831C55.6436 -0.920717 58.5718 1.84375 57.2804 4.17778C56.5833 6.02076 53.8066 6.51182 52.3152 5.09927C50.8239 3.74129 51.321 1.01926 53.3095 0.249329L53.261 0.297831ZM27.6954 2.9653C29.1807 2.37724 30.9691 3.64429 30.8236 5.14777C30.9691 6.79675 28.8836 8.05774 27.3983 7.23325C25.4583 6.50576 25.7069 3.45029 27.6954 2.9653ZM80.1119 7.28175C77.8263 6.98469 77.4807 3.58367 79.6147 2.91074C81.3547 2.12868 82.8885 3.58973 83.1371 5.14171C82.7915 6.4512 81.6517 7.66974 80.1119 7.28175ZM33.5033 13.4048C35.9283 11.9498 39.3596 14.1323 38.9595 16.7998C38.8625 19.5703 35.1401 21.1708 33.0061 19.3278C30.9206 17.8728 31.2662 14.5203 33.5033 13.4048ZM70.3815 15.0053C71.4728 12.3378 75.8378 12.2348 77.0806 14.8113C78.2749 16.8483 76.7835 19.3763 74.601 20.0553C71.7759 20.5403 69.0417 17.6303 70.3815 15.0053ZM50.1812 19.8613C50.1812 17.5818 52.3637 15.8783 54.6493 15.7388C56.1346 16.0238 57.7776 16.6543 58.4202 18.1153C59.6084 20.1038 58.5718 22.8743 56.3832 23.8443C55.3889 24.3293 54.2007 24.1353 53.1094 24.0868C51.4726 23.3108 50.0782 21.7588 50.1812 19.9098L50.1812 19.8613ZM12.1572 23.2562C14.3397 21.9528 17.3224 24.3293 16.4737 26.6633C16.0311 28.6033 13.2484 29.4278 11.66 28.1668C9.97465 26.9543 10.2232 24.0868 12.1572 23.2562ZM93.8616 23.2562C95.741 21.8013 98.8268 23.4563 98.5783 25.6873C98.7238 27.7788 96.0927 29.3854 94.2133 28.3123C92.1702 27.3908 91.9277 24.4263 93.8616 23.2562ZM60.8998 27.3969C62.4518 26.8937 64.119 26.8998 65.6649 27.4151C67.2108 27.9304 68.5325 28.9307 69.4418 30.2644C71.7214 33.4654 70.5331 38.4184 66.9077 40.2674C63.1853 42.4984 57.7291 40.6009 56.3408 36.6239C54.7463 33.0289 57.0319 28.5124 60.8998 27.3969ZM42.785 27.7364C46.2103 26.1783 50.8239 27.4939 52.4607 30.8403C54.4492 34.1444 52.9094 38.7094 49.4356 40.4069C45.9617 42.3468 40.9965 40.8918 39.3596 37.3514C37.4196 33.9564 39.1111 29.2884 42.785 27.7364ZM24.6156 33.7018C24.8642 31.5678 26.9497 30.2038 29.0837 30.0644C31.3208 30.3069 33.1031 32.0043 33.3517 34.1868C33.2001 36.3693 31.4723 38.5518 29.0837 38.5518C26.4041 38.7518 24.1185 36.1753 24.6156 33.7018ZM78.2264 30.4948C80.9546 29.0398 84.6769 31.2223 84.5799 34.1929C84.78 37.3938 80.609 39.6248 77.9294 37.7818C75.0982 36.2298 75.2982 31.8588 78.2264 30.4948ZM35.3887 41.7103C36.9689 41.3043 38.638 41.4191 40.1478 42.0377C41.6513 42.6439 42.9123 43.7351 43.7247 45.1113C44.5508 46.5377 44.8398 48.2125 44.5397 49.8333C44.2395 51.4541 43.3699 52.9143 42.0878 53.9503C38.711 57.0119 32.4605 55.7509 30.6721 51.6224C28.5866 47.8273 31.0661 42.7288 35.3887 41.7103ZM69.7874 41.7103C72.8672 40.8373 76.4865 42.0073 78.1234 44.6809C80.3604 47.7848 79.2692 52.4408 76.0439 54.3868C72.564 56.7209 67.3018 55.5084 65.4163 51.8648C63.1368 48.1243 65.4163 42.8318 69.7813 41.6678L69.7874 41.7103ZM14.9399 45.1659C17.668 44.1959 20.6992 47.1058 19.608 49.7248C18.9047 52.1073 15.437 52.9803 13.6485 51.1798C11.5145 49.5793 12.3087 45.8934 14.9399 45.1598M89.242 48.9913C89.1942 47.9151 89.5758 46.864 90.303 46.0692C91.0468 45.2664 92.072 44.7821 93.1645 44.7172C95.0014 45.0082 96.8383 46.4632 96.6928 48.4578C96.8868 51.0343 93.6131 52.8288 91.3275 51.5678C90.2363 51.0828 89.6906 50.0158 89.242 48.9913ZM1.43863 46.4632C3.12401 45.7903 5.16102 47.1483 4.76089 48.8882C4.66389 50.8888 1.63263 51.6648 0.492882 50.0158C-0.50137 48.8458 0.0988179 47.0998 1.48713 46.4632L1.43863 46.4632ZM105.429 46.4632C106.617 45.6448 108.454 46.1783 108.903 47.4878C109.691 48.9428 108.254 50.8827 106.617 50.6402C104.283 50.8342 103.489 47.4393 105.429 46.4208L105.429 46.4632ZM44.3188 55.9812C48.6414 54.9143 53.3095 58.4062 53.3519 62.6863C53.6066 67.0512 49.0354 70.9433 44.5734 69.9248C42.8842 69.6359 41.3513 68.7599 40.2448 67.4514C39.1476 66.1636 38.5513 64.5235 38.5655 62.8318C38.5655 59.6793 41.0511 56.6663 44.3248 56.0358L44.3188 55.9812ZM61.5 55.9812C65.9135 54.8173 70.6847 58.3638 70.6301 62.7833C70.8726 67.0088 66.4106 70.7493 62.0456 69.8763C57.9716 69.3913 54.9464 65.0688 56.0861 61.2313C56.6803 58.7033 58.8688 56.6178 61.5 55.9873M28.338 58.6548C31.4178 58.1698 34.2975 61.4314 33.0061 64.1958C32.115 67.1604 27.6408 67.9848 25.6584 65.5599C23.3243 63.2258 25.0642 58.9518 28.338 58.6608M78.772 58.8124C81.4517 57.6969 84.8285 59.9764 84.5799 62.7954C84.7315 65.8994 80.609 68.0879 77.9294 66.2449C74.9466 64.5899 75.4437 59.7884 78.772 58.8124ZM92.8189 72.4104C91.7761 70.4704 93.7161 67.9424 95.8987 68.288C96.9899 68.288 97.778 69.1064 98.4752 69.8339C98.6268 70.9554 98.8753 72.2649 97.8811 73.1864C96.5413 74.793 93.5646 74.3019 92.8189 72.4104ZM12.1087 68.8154C14.1457 67.5059 17.0739 69.4944 16.6252 71.7799C16.3827 73.8715 13.697 75.0355 11.9571 73.8715C10.0777 72.7984 10.1202 69.7915 12.1087 68.8154ZM52.7639 73.1379C55.4435 71.9739 58.8688 74.2534 58.6203 77.0785C58.8143 80.2249 54.6008 82.4134 51.9697 80.522C48.9869 78.9154 49.4841 74.1079 52.7578 73.1379M33.8913 77.3634C36.2253 76.1994 39.3051 78.1879 39.0565 80.6675C39.1535 82.7044 37.068 84.4565 35.0371 84.1109C33.2971 84.1109 32.1574 82.6074 31.6118 81.201C31.6118 79.649 32.3089 77.9454 33.9458 77.321L33.8913 77.3634ZM72.1154 77.3634C74.4495 75.9569 77.7717 77.9939 77.5717 80.619C77.6262 83.438 73.8493 85.184 71.6183 83.3834C69.5328 81.9284 69.7813 78.5274 72.1154 77.4119L72.1154 77.3634ZM78.7175 93.1439C77.6747 91.6889 78.9115 89.7914 80.5969 89.458C81.9912 89.749 83.4281 90.7129 83.0825 92.2224C82.9309 94.314 79.8087 94.9445 78.7175 93.1924L78.7175 93.1439ZM26.0524 91.8344C26.4465 90.622 27.4407 89.4095 28.9321 89.7429C31.1146 89.8945 31.7573 93.0469 29.8718 94.0169C28.1379 95.09 26.1979 93.5865 26.0524 91.8344ZM51.4665 93.2409C51.8606 91.4465 54.2916 90.5735 55.88 91.5434C56.8743 91.9799 57.2259 93.0954 57.4684 94.0715L57.0743 95.5265C56.4256 96.3025 55.5829 97.0299 54.5402 96.9814C52.5092 97.2239 50.6723 95.0415 51.4665 93.2409Z" fill="white"></path>
            </svg>