<svg width="456" height="456" viewBox="0 0 456 456" fill="none" xmlns="http://www.w3.org/2000/svg">
<path d="M65.7875 455.776L0.348964 390.338L21.9355 368.751C26.5817 364.105 31.4994 360.756 36.6886 358.704C41.8778 356.593 47.0218 356.034 52.1205 357.03C57.2192 357.965 62.0011 360.665 66.4663 365.131C70.8409 369.505 73.5864 374.212 74.7027 379.25C75.7888 384.258 75.3966 389.297 73.526 394.365C71.6857 399.404 68.4877 404.201 63.932 408.756L48.6811 424.007L73.1187 448.445L65.7875 455.776ZM42.436 417.852L57.5963 402.692C62.3933 397.895 64.9729 392.691 65.3349 387.079C65.7271 381.437 63.6303 376.324 59.0445 371.738C54.3983 367.092 49.375 365.146 43.9746 365.9C38.5742 366.654 33.385 369.52 28.407 374.498L13.7444 389.161L42.436 417.852ZM122.975 398.589L57.5362 333.15L82.2454 308.441C86.8312 303.855 91.3718 300.703 95.8671 298.983C100.362 297.203 104.692 296.826 108.855 297.852C113.049 298.847 116.986 301.185 120.667 304.866C124.227 308.426 126.535 312.062 127.591 315.772C128.647 319.423 128.888 322.953 128.315 326.362C127.711 329.741 126.701 332.833 125.283 335.639L168.682 352.881L161.125 360.439L119.807 343.74L101.026 362.521L130.034 391.529L122.975 398.589ZM94.962 356.457L109.806 341.613C115.115 336.303 118.178 331.219 118.992 326.362C119.807 321.444 118.102 316.874 113.878 312.65C109.806 308.577 105.552 306.827 101.117 307.4C96.6515 307.943 92.1713 310.463 87.6759 314.958L70.5696 332.064L94.962 356.457ZM183.698 337.866L118.259 272.427L158.491 232.196L164.826 238.532L131.654 271.703L154.553 294.602L184.693 264.463L191.029 270.798L160.889 300.938L184.241 324.29L218.453 290.167L224.925 296.639L183.698 337.866ZM256.478 265.086L167.597 223.089L174.657 216.029L252.948 252.776L216.156 174.531L223.261 167.426L265.257 256.306L256.478 265.086ZM299.928 221.635L234.49 156.197L241.549 149.137L306.988 214.576L299.928 221.635ZM324.942 196.621L259.504 131.183L299.735 90.9514L306.071 97.287L272.899 130.459L295.798 153.358L325.938 123.218L332.273 129.554L302.134 159.693L325.485 183.045L359.698 148.923L366.169 155.394L324.942 196.621ZM392.971 128.593L308.842 81.8445L316.037 74.649L385.685 114.066L346.63 44.0567L352.377 38.3094L422.251 77.5001L383.196 7.49084L390.346 0.340573L436.777 84.7861L429.808 91.7553L361.971 53.7865L399.714 121.85L392.971 128.593Z" fill="#000B31" fill-opacity="0.05"/>
</svg>
