<svg width="760" height="361" viewBox="0 0 760 361" fill="none" xmlns="http://www.w3.org/2000/svg">
<g clip-path="url(#clip0_1226_5583)">
<rect x="140" y="40" width="480" height="306" rx="12" fill="white"/>
<rect x="152" y="52" width="157" height="12" rx="4" fill="#EEEDEB"/>
<mask id="path-4-outside-1_1226_5583" maskUnits="userSpaceOnUse" x="282.293" y="99.4697" width="196" height="196" fill="black">
<rect fill="white" x="282.293" y="99.4697" width="196" height="196"/>
<path d="M475.353 197C475.353 249.76 432.583 292.53 379.823 292.53C327.063 292.53 284.293 249.76 284.293 197C284.293 144.24 327.063 101.47 379.823 101.47C432.583 101.47 475.353 144.24 475.353 197ZM341.611 197C341.611 218.104 358.719 235.212 379.823 235.212C400.927 235.212 418.035 218.104 418.035 197C418.035 175.896 400.927 158.788 379.823 158.788C358.719 158.788 341.611 175.896 341.611 197Z"/>
</mask>
<path d="M475.353 197C475.353 249.76 432.583 292.53 379.823 292.53C327.063 292.53 284.293 249.76 284.293 197C284.293 144.24 327.063 101.47 379.823 101.47C432.583 101.47 475.353 144.24 475.353 197ZM341.611 197C341.611 218.104 358.719 235.212 379.823 235.212C400.927 235.212 418.035 218.104 418.035 197C418.035 175.896 400.927 158.788 379.823 158.788C358.719 158.788 341.611 175.896 341.611 197Z" fill="#FFDBA7"/>
<path d="M475.353 197C475.353 249.76 432.583 292.53 379.823 292.53C327.063 292.53 284.293 249.76 284.293 197C284.293 144.24 327.063 101.47 379.823 101.47C432.583 101.47 475.353 144.24 475.353 197ZM341.611 197C341.611 218.104 358.719 235.212 379.823 235.212C400.927 235.212 418.035 218.104 418.035 197C418.035 175.896 400.927 158.788 379.823 158.788C358.719 158.788 341.611 175.896 341.611 197Z" stroke="white" stroke-width="4" mask="url(#path-4-outside-1_1226_5583)"/>
<mask id="path-5-outside-2_1226_5583" maskUnits="userSpaceOnUse" x="282.293" y="99.4697" width="166" height="196" fill="black">
<rect fill="white" x="282.293" y="99.4697" width="166" height="196"/>
<path d="M379.823 101.47C364.24 101.47 348.893 105.282 335.122 112.574C321.35 119.865 309.571 130.415 300.812 143.304C292.053 156.192 286.58 171.028 284.87 186.517C283.16 202.006 285.265 217.678 291.001 232.167C296.738 246.656 305.932 259.521 317.781 269.641C329.631 279.762 343.776 286.83 358.984 290.229C374.192 293.629 390 293.256 405.031 289.144C420.062 285.032 433.858 277.306 445.218 266.638L405.981 224.855C401.437 229.122 395.919 232.213 389.906 233.858C383.894 235.502 377.57 235.651 371.487 234.292C365.404 232.932 359.746 230.105 355.006 226.056C350.267 222.008 346.589 216.862 344.294 211.067C342 205.271 341.158 199.002 341.842 192.807C342.526 186.611 344.715 180.677 348.219 175.521C351.722 170.366 356.434 166.146 361.943 163.229C367.451 160.313 373.59 158.788 379.823 158.788V101.47Z"/>
</mask>
<path d="M379.823 101.47C364.24 101.47 348.893 105.282 335.122 112.574C321.35 119.865 309.571 130.415 300.812 143.304C292.053 156.192 286.58 171.028 284.87 186.517C283.16 202.006 285.265 217.678 291.001 232.167C296.738 246.656 305.932 259.521 317.781 269.641C329.631 279.762 343.776 286.83 358.984 290.229C374.192 293.629 390 293.256 405.031 289.144C420.062 285.032 433.858 277.306 445.218 266.638L405.981 224.855C401.437 229.122 395.919 232.213 389.906 233.858C383.894 235.502 377.57 235.651 371.487 234.292C365.404 232.932 359.746 230.105 355.006 226.056C350.267 222.008 346.589 216.862 344.294 211.067C342 205.271 341.158 199.002 341.842 192.807C342.526 186.611 344.715 180.677 348.219 175.521C351.722 170.366 356.434 166.146 361.943 163.229C367.451 160.313 373.59 158.788 379.823 158.788V101.47Z" fill="#FFC87A"/>
<path d="M379.823 101.47C364.24 101.47 348.893 105.282 335.122 112.574C321.35 119.865 309.571 130.415 300.812 143.304C292.053 156.192 286.58 171.028 284.87 186.517C283.16 202.006 285.265 217.678 291.001 232.167C296.738 246.656 305.932 259.521 317.781 269.641C329.631 279.762 343.776 286.83 358.984 290.229C374.192 293.629 390 293.256 405.031 289.144C420.062 285.032 433.858 277.306 445.218 266.638L405.981 224.855C401.437 229.122 395.919 232.213 389.906 233.858C383.894 235.502 377.57 235.651 371.487 234.292C365.404 232.932 359.746 230.105 355.006 226.056C350.267 222.008 346.589 216.862 344.294 211.067C342 205.271 341.158 199.002 341.842 192.807C342.526 186.611 344.715 180.677 348.219 175.521C351.722 170.366 356.434 166.146 361.943 163.229C367.451 160.313 373.59 158.788 379.823 158.788V101.47Z" stroke="white" stroke-width="4" mask="url(#path-5-outside-2_1226_5583)"/>
<mask id="path-6-outside-3_1226_5583" maskUnits="userSpaceOnUse" x="294.293" y="99.4697" width="88" height="81" fill="black">
<rect fill="white" x="294.293" y="99.4697" width="88" height="81"/>
<path d="M379.823 101.47C363.184 101.47 346.834 105.816 332.391 114.077C317.948 122.339 305.913 134.229 297.478 148.572L346.885 177.629C350.259 171.892 355.073 167.135 360.85 163.831C366.627 160.526 373.168 158.788 379.823 158.788V101.47Z"/>
</mask>
<path d="M379.823 101.47C363.184 101.47 346.834 105.816 332.391 114.077C317.948 122.339 305.913 134.229 297.478 148.572L346.885 177.629C350.259 171.892 355.073 167.135 360.85 163.831C366.627 160.526 373.168 158.788 379.823 158.788V101.47Z" fill="#FFB64E"/>
<path d="M379.823 101.47C363.184 101.47 346.834 105.816 332.391 114.077C317.948 122.339 305.913 134.229 297.478 148.572L346.885 177.629C350.259 171.892 355.073 167.135 360.85 163.831C366.627 160.526 373.168 158.788 379.823 158.788V101.47Z" stroke="white" stroke-width="4" mask="url(#path-6-outside-3_1226_5583)"/>
<rect x="152" y="326" width="60" height="12" rx="4" fill="#EEEDEB"/>
<rect x="220" y="326" width="60" height="12" rx="4" fill="#EEEDEB"/>
<path d="M288 332C288 328.686 290.686 326 294 326H342C345.314 326 348 328.686 348 332C348 335.314 345.314 338 342 338H294C290.686 338 288 335.314 288 332Z" fill="#EEEDEB"/>
</g>
<rect x="140.5" y="40.5" width="479" height="305" rx="11.5" stroke="#DDDDDE"/>
<path d="M0 48C0 43.5817 3.58172 40 8 40H752C756.418 40 760 43.5817 760 48V352C760 356.418 756.418 360 752 360H7.99999C3.58171 360 0 356.418 0 352V48Z" fill="url(#paint0_linear_1226_5583)"/>
<rect x="72.5" y="156.5" width="233" height="149" rx="5.5" fill="white"/>
<rect x="72.5" y="156.5" width="233" height="149" rx="5.5" stroke="#DDDDDE"/>
<rect x="77.832" y="162.318" width="76.302" height="5.832" rx="2" fill="#EEEDEB"/>
<path d="M226.056 199.983L153.043 258.58C153.043 258.58 100.036 264.176 77.832 266.53V285.276L300.168 285.276V180.3C277.277 186.374 226.056 199.983 226.056 199.983Z" fill="#F3FAFF"/>
<path d="M77.832 266.53L152.674 258.594C153.056 258.554 153.418 258.404 153.718 258.163L225.639 200.256C225.857 200.08 226.11 199.952 226.381 199.88L300.168 180.3" stroke="#85C8FF" stroke-linecap="round" stroke-linejoin="round"/>
<rect x="77.832" y="294.996" width="29.16" height="5.832" rx="2" fill="#EEEDEB"/>
<rect x="110.88" y="294.996" width="29.16" height="5.832" rx="2" fill="#EEEDEB"/>
<rect x="143.928" y="294.996" width="29.16" height="5.832" rx="2" fill="#EEEDEB"/>
<rect x="472.5" y="81.5" width="191" height="123" rx="5.5" fill="white"/>
<rect x="472.5" y="81.5" width="191" height="123" rx="5.5" stroke="#DDDDDE"/>
<rect x="476.8" y="86.2" width="62.8" height="4.8" rx="2" fill="#EEEDEB"/>
<rect x="476.8" y="111.2" width="12.2667" height="76.2" rx="2" fill="#E3EF98"/>
<rect x="492.267" y="127" width="12.2667" height="60.4" rx="2" fill="#E3EF98"/>
<rect x="507.733" y="104.2" width="12.2667" height="83.2" rx="2" fill="#E3EF98"/>
<rect x="523.2" y="167.2" width="12.2667" height="20.2" rx="2" fill="#E3EF98"/>
<rect x="538.667" y="148.2" width="12.2667" height="39.2" rx="2" fill="#E3EF98"/>
<rect x="554.133" y="125.4" width="12.2667" height="62" rx="2" fill="#E3EF98"/>
<rect x="569.6" y="134" width="12.2667" height="53.4" rx="2" fill="#E3EF98"/>
<rect x="585.067" y="156.6" width="12.2667" height="30.8" rx="2" fill="#E3EF98"/>
<rect x="600.533" y="125.4" width="12.2667" height="62" rx="2" fill="#E3EF98"/>
<rect x="616" y="171" width="12.2667" height="16.4" rx="2" fill="#E3EF98"/>
<rect x="631.467" y="148.2" width="12.2667" height="39.2" rx="2" fill="#E3EF98"/>
<rect x="646.933" y="111.2" width="12.2667" height="76.2" rx="2" fill="#E3EF98"/>
<rect x="476.8" y="195.4" width="24" height="4.8" rx="2" fill="#EEEDEB"/>
<rect x="504" y="195.4" width="24" height="4.8" rx="2" fill="#EEEDEB"/>
<rect x="531.2" y="195.4" width="24" height="4.8" rx="2" fill="#EEEDEB"/>
<defs>
<linearGradient id="paint0_linear_1226_5583" x1="380" y1="40" x2="380" y2="360" gradientUnits="userSpaceOnUse">
<stop stop-color="#F7F6F2" stop-opacity="0"/>
<stop offset="0.95" stop-color="#F7F6F2"/>
</linearGradient>
<clipPath id="clip0_1226_5583">
<rect x="140" y="40" width="480" height="306" rx="12" fill="white"/>
</clipPath>
</defs>
</svg>
