<svg width="760" height="361" viewBox="0 0 760 361" fill="none" xmlns="http://www.w3.org/2000/svg">
<g clip-path="url(#clip0_1226_17426)">
<rect x="140" y="40.5" width="480" height="306" rx="12" fill="white"/>
<rect x="152" y="54.5" width="120" height="22" rx="4" fill="#EEEDEB"/>
<rect x="278" y="54.5" width="120" height="22" rx="4" fill="#EEEDEB"/>
<rect x="586" y="54.5" width="22" height="22" rx="4" fill="#EEEDEB"/>
<rect x="152" y="98.5" width="456" height="19.2727" rx="4" fill="#EEEDEB"/>
<rect x="152" y="117.773" width="456" height="19.2727" rx="4" fill="white"/>
<rect x="152" y="137.045" width="456" height="19.2727" rx="4" fill="#EEEDEB"/>
<rect x="152" y="156.318" width="456" height="19.2727" rx="4" fill="white"/>
<rect x="152" y="175.591" width="456" height="19.2727" rx="4" fill="#EEEDEB"/>
<rect x="152" y="194.864" width="456" height="19.2727" rx="4" fill="white"/>
<rect x="152" y="214.136" width="456" height="19.2727" rx="4" fill="#EEEDEB"/>
<rect x="152" y="233.409" width="456" height="19.2727" rx="4" fill="white"/>
<rect x="152" y="252.682" width="456" height="19.2727" rx="4" fill="#EEEDEB"/>
<rect x="152" y="271.955" width="456" height="19.2727" rx="4" fill="white"/>
<rect x="152" y="291.227" width="456" height="19.2727" rx="4" fill="#EEEDEB"/>
<rect x="552" y="326.5" width="60" height="12" rx="4" fill="#EEEDEB"/>
</g>
<rect x="140.5" y="41" width="479" height="305" rx="11.5" stroke="#DDDDDE"/>
<path d="M0 48.5C0 44.0817 3.58172 40.5 8 40.5H752C756.418 40.5 760 44.0817 760 48.5V352.5C760 356.918 756.418 360.5 752 360.5H7.99999C3.58171 360.5 0 356.918 0 352.5V48.5Z" fill="url(#paint0_linear_1226_17426)"/>
<path d="M228 125.5H692C696.142 125.5 699.5 128.858 699.5 133V163C699.5 167.142 696.142 170.5 692 170.5H228C223.858 170.5 220.5 167.142 220.5 163V133C220.5 128.858 223.858 125.5 228 125.5Z" fill="white"/>
<path d="M228 125.5H692C696.142 125.5 699.5 128.858 699.5 133V163C699.5 167.142 696.142 170.5 692 170.5H228C223.858 170.5 220.5 167.142 220.5 163V133C220.5 128.858 223.858 125.5 228 125.5Z" stroke="#DDDDDE"/>
<rect x="232" y="137" width="81.6" height="22" rx="4" fill="#EEEDEB"/>
<rect x="325.6" y="137" width="81.6" height="22" rx="4" fill="#EEEDEB"/>
<rect x="419.2" y="137" width="81.6" height="22" rx="4" fill="#EEEDEB"/>
<rect x="512.8" y="137" width="81.6" height="22" rx="4" fill="#EEEDEB"/>
<path d="M620.034 152.12C619.082 152.12 618.298 151.92 617.682 151.52C617.07 151.12 616.71 150.52 616.602 149.72L617.946 149.654C618.062 150.118 618.304 150.468 618.672 150.704C619.04 150.936 619.492 151.052 620.028 151.052C620.348 151.052 620.646 150.998 620.922 150.89C621.198 150.778 621.42 150.624 621.588 150.428C621.756 150.232 621.84 150.004 621.84 149.744C621.84 149.376 621.728 149.088 621.504 148.88C621.284 148.672 620.938 148.508 620.466 148.388L618.99 148.016C618.342 147.86 617.826 147.602 617.442 147.242C617.062 146.878 616.87 146.39 616.866 145.778C616.862 145.266 616.996 144.818 617.268 144.434C617.544 144.05 617.924 143.752 618.408 143.54C618.892 143.324 619.444 143.216 620.064 143.216C620.676 143.216 621.202 143.33 621.642 143.558C622.086 143.786 622.428 144.09 622.668 144.47C622.912 144.846 623.04 145.258 623.052 145.706L621.75 145.76C621.67 145.28 621.496 144.914 621.228 144.662C620.964 144.406 620.578 144.278 620.07 144.278C619.826 144.278 619.594 144.308 619.374 144.368C619.154 144.428 618.96 144.516 618.792 144.632C618.624 144.748 618.49 144.892 618.39 145.064C618.294 145.232 618.246 145.426 618.246 145.646C618.246 145.942 618.348 146.176 618.552 146.348C618.76 146.52 619.136 146.686 619.68 146.846L621.114 147.236C621.862 147.436 622.398 147.754 622.722 148.19C623.046 148.626 623.208 149.138 623.208 149.726C623.208 150.198 623.076 150.614 622.812 150.974C622.548 151.334 622.176 151.616 621.696 151.82C621.22 152.02 620.666 152.12 620.034 152.12ZM619.428 153.224V151.67H620.586V153.224H619.428ZM619.488 143.594V142.04H620.652V143.594H619.488ZM626.077 152V145.208H624.433V144.41C624.945 144.41 625.347 144.37 625.639 144.29C625.935 144.206 626.147 144.084 626.275 143.924C626.407 143.76 626.481 143.56 626.497 143.324H627.391V152H626.077ZM632.559 152.132C631.579 152.132 630.807 151.758 630.243 151.01C629.679 150.258 629.397 149.152 629.397 147.692C629.397 146.712 629.527 145.89 629.787 145.226C630.047 144.558 630.413 144.054 630.885 143.714C631.361 143.374 631.921 143.204 632.565 143.204C633.529 143.204 634.295 143.584 634.863 144.344C635.435 145.1 635.721 146.212 635.721 147.68C635.721 149.14 635.437 150.248 634.869 151.004C634.305 151.756 633.535 152.132 632.559 152.132ZM632.565 151.04C633.157 151.04 633.601 150.78 633.897 150.26C634.193 149.736 634.341 148.878 634.341 147.686C634.341 146.47 634.191 145.596 633.891 145.064C633.591 144.528 633.147 144.26 632.559 144.26C631.975 144.26 631.529 144.53 631.221 145.07C630.913 145.606 630.759 146.478 630.759 147.686C630.759 148.874 630.911 149.73 631.215 150.254C631.523 150.778 631.973 151.04 632.565 151.04ZM636.82 153.554L637.498 152.03L636.952 151.994V150.566H638.44V151.814L637.372 153.554H636.82ZM643.023 152.132C642.043 152.132 641.271 151.758 640.707 151.01C640.143 150.258 639.861 149.152 639.861 147.692C639.861 146.712 639.991 145.89 640.251 145.226C640.511 144.558 640.877 144.054 641.349 143.714C641.825 143.374 642.385 143.204 643.029 143.204C643.993 143.204 644.759 143.584 645.327 144.344C645.899 145.1 646.185 146.212 646.185 147.68C646.185 149.14 645.901 150.248 645.333 151.004C644.769 151.756 643.999 152.132 643.023 152.132ZM643.029 151.04C643.621 151.04 644.065 150.78 644.361 150.26C644.657 149.736 644.805 148.878 644.805 147.686C644.805 146.47 644.655 145.596 644.355 145.064C644.055 144.528 643.611 144.26 643.023 144.26C642.439 144.26 641.993 144.53 641.685 145.07C641.377 145.606 641.223 146.478 641.223 147.686C641.223 148.874 641.375 149.73 641.679 150.254C641.987 150.778 642.437 151.04 643.029 151.04ZM650.406 152.132C649.426 152.132 648.654 151.758 648.09 151.01C647.526 150.258 647.244 149.152 647.244 147.692C647.244 146.712 647.374 145.89 647.634 145.226C647.894 144.558 648.26 144.054 648.732 143.714C649.208 143.374 649.768 143.204 650.412 143.204C651.376 143.204 652.142 143.584 652.71 144.344C653.282 145.1 653.568 146.212 653.568 147.68C653.568 149.14 653.284 150.248 652.716 151.004C652.152 151.756 651.382 152.132 650.406 152.132ZM650.412 151.04C651.004 151.04 651.448 150.78 651.744 150.26C652.04 149.736 652.188 148.878 652.188 147.686C652.188 146.47 652.038 145.596 651.738 145.064C651.438 144.528 650.994 144.26 650.406 144.26C649.822 144.26 649.376 144.53 649.068 145.07C648.76 145.606 648.606 146.478 648.606 147.686C648.606 148.874 648.758 149.73 649.062 150.254C649.37 150.778 649.82 151.04 650.412 151.04ZM657.789 152.132C656.809 152.132 656.037 151.758 655.473 151.01C654.909 150.258 654.627 149.152 654.627 147.692C654.627 146.712 654.757 145.89 655.017 145.226C655.277 144.558 655.643 144.054 656.115 143.714C656.591 143.374 657.151 143.204 657.795 143.204C658.759 143.204 659.525 143.584 660.093 144.344C660.665 145.1 660.951 146.212 660.951 147.68C660.951 149.14 660.667 150.248 660.099 151.004C659.535 151.756 658.765 152.132 657.789 152.132ZM657.795 151.04C658.387 151.04 658.831 150.78 659.127 150.26C659.423 149.736 659.571 148.878 659.571 147.686C659.571 146.47 659.421 145.596 659.121 145.064C658.821 144.528 658.377 144.26 657.789 144.26C657.205 144.26 656.759 144.53 656.451 145.07C656.143 145.606 655.989 146.478 655.989 147.686C655.989 148.874 656.141 149.73 656.445 150.254C656.753 150.778 657.203 151.04 657.795 151.04ZM662.158 152V150.452H663.64V152H662.158ZM668.09 152.132C667.11 152.132 666.338 151.758 665.774 151.01C665.21 150.258 664.928 149.152 664.928 147.692C664.928 146.712 665.058 145.89 665.318 145.226C665.578 144.558 665.944 144.054 666.416 143.714C666.892 143.374 667.452 143.204 668.096 143.204C669.06 143.204 669.826 143.584 670.394 144.344C670.966 145.1 671.252 146.212 671.252 147.68C671.252 149.14 670.968 150.248 670.4 151.004C669.836 151.756 669.066 152.132 668.09 152.132ZM668.096 151.04C668.688 151.04 669.132 150.78 669.428 150.26C669.724 149.736 669.872 148.878 669.872 147.686C669.872 146.47 669.722 145.596 669.422 145.064C669.122 144.528 668.678 144.26 668.09 144.26C667.506 144.26 667.06 144.53 666.752 145.07C666.444 145.606 666.29 146.478 666.29 147.686C666.29 148.874 666.442 149.73 666.746 150.254C667.054 150.778 667.504 151.04 668.096 151.04ZM675.473 152.132C674.493 152.132 673.721 151.758 673.157 151.01C672.593 150.258 672.311 149.152 672.311 147.692C672.311 146.712 672.441 145.89 672.701 145.226C672.961 144.558 673.327 144.054 673.799 143.714C674.275 143.374 674.835 143.204 675.479 143.204C676.443 143.204 677.209 143.584 677.777 144.344C678.349 145.1 678.635 146.212 678.635 147.68C678.635 149.14 678.351 150.248 677.783 151.004C677.219 151.756 676.449 152.132 675.473 152.132ZM675.479 151.04C676.071 151.04 676.515 150.78 676.811 150.26C677.107 149.736 677.255 148.878 677.255 147.686C677.255 146.47 677.105 145.596 676.805 145.064C676.505 144.528 676.061 144.26 675.473 144.26C674.889 144.26 674.443 144.53 674.135 145.07C673.827 145.606 673.673 146.478 673.673 147.686C673.673 148.874 673.825 149.73 674.129 150.254C674.437 150.778 674.887 151.04 675.479 151.04Z" fill="#E6941F"/>
<path d="M28 215.5H492C496.142 215.5 499.5 218.858 499.5 223V253C499.5 257.142 496.142 260.5 492 260.5H28C23.8579 260.5 20.5 257.142 20.5 253V223C20.5 218.858 23.8579 215.5 28 215.5Z" fill="white"/>
<path d="M28 215.5H492C496.142 215.5 499.5 218.858 499.5 223V253C499.5 257.142 496.142 260.5 492 260.5H28C23.8579 260.5 20.5 257.142 20.5 253V223C20.5 218.858 23.8579 215.5 28 215.5Z" stroke="#DDDDDE"/>
<rect x="32" y="227" width="81.6" height="22" rx="4" fill="#EEEDEB"/>
<rect x="125.6" y="227" width="81.6" height="22" rx="4" fill="#EEEDEB"/>
<rect x="219.2" y="227" width="81.6" height="22" rx="4" fill="#EEEDEB"/>
<rect x="312.8" y="227" width="81.6" height="22" rx="4" fill="#EEEDEB"/>
<path d="M422.656 242.12C421.704 242.12 420.92 241.92 420.304 241.52C419.692 241.12 419.332 240.52 419.224 239.72L420.568 239.654C420.684 240.118 420.926 240.468 421.294 240.704C421.662 240.936 422.114 241.052 422.65 241.052C422.97 241.052 423.268 240.998 423.544 240.89C423.82 240.778 424.042 240.624 424.21 240.428C424.378 240.232 424.462 240.004 424.462 239.744C424.462 239.376 424.35 239.088 424.126 238.88C423.906 238.672 423.56 238.508 423.088 238.388L421.612 238.016C420.964 237.86 420.448 237.602 420.064 237.242C419.684 236.878 419.492 236.39 419.488 235.778C419.484 235.266 419.618 234.818 419.89 234.434C420.166 234.05 420.546 233.752 421.03 233.54C421.514 233.324 422.066 233.216 422.686 233.216C423.298 233.216 423.824 233.33 424.264 233.558C424.708 233.786 425.05 234.09 425.29 234.47C425.534 234.846 425.662 235.258 425.674 235.706L424.372 235.76C424.292 235.28 424.118 234.914 423.85 234.662C423.586 234.406 423.2 234.278 422.692 234.278C422.448 234.278 422.216 234.308 421.996 234.368C421.776 234.428 421.582 234.516 421.414 234.632C421.246 234.748 421.112 234.892 421.012 235.064C420.916 235.232 420.868 235.426 420.868 235.646C420.868 235.942 420.97 236.176 421.174 236.348C421.382 236.52 421.758 236.686 422.302 236.846L423.736 237.236C424.484 237.436 425.02 237.754 425.344 238.19C425.668 238.626 425.83 239.138 425.83 239.726C425.83 240.198 425.698 240.614 425.434 240.974C425.17 241.334 424.798 241.616 424.318 241.82C423.842 242.02 423.288 242.12 422.656 242.12ZM422.05 243.224V241.67H423.208V243.224H422.05ZM422.11 233.594V232.04H423.274V233.594H422.11ZM427.234 242V241.274V240.89C427.234 240.45 427.316 240.068 427.48 239.744C427.648 239.42 427.868 239.138 428.14 238.898C428.412 238.654 428.71 238.438 429.034 238.25C429.362 238.062 429.688 237.882 430.012 237.71C430.336 237.538 430.634 237.36 430.906 237.176C431.178 236.988 431.396 236.778 431.56 236.546C431.728 236.31 431.812 236.034 431.812 235.718C431.812 235.302 431.666 234.964 431.374 234.704C431.082 234.444 430.686 234.314 430.186 234.314C429.654 234.314 429.222 234.464 428.89 234.764C428.558 235.064 428.366 235.478 428.314 236.006H427.054C427.066 235.49 427.192 235.02 427.432 234.596C427.672 234.172 428.026 233.834 428.494 233.582C428.962 233.33 429.542 233.204 430.234 233.204C430.834 233.204 431.352 233.31 431.788 233.522C432.228 233.73 432.568 234.022 432.808 234.398C433.048 234.774 433.168 235.212 433.168 235.712C433.168 236.156 433.086 236.538 432.922 236.858C432.758 237.178 432.542 237.454 432.274 237.686C432.01 237.918 431.718 238.124 431.398 238.304C431.078 238.48 430.758 238.65 430.438 238.814C430.118 238.974 429.824 239.144 429.556 239.324C429.288 239.5 429.072 239.7 428.908 239.924C428.744 240.148 428.662 240.418 428.662 240.734V240.884H433.198V242H427.234ZM434.32 243.554L434.998 242.03L434.452 241.994V240.566H435.94V241.814L434.872 243.554H434.32ZM440.523 242.132C439.543 242.132 438.771 241.758 438.207 241.01C437.643 240.258 437.361 239.152 437.361 237.692C437.361 236.712 437.491 235.89 437.751 235.226C438.011 234.558 438.377 234.054 438.849 233.714C439.325 233.374 439.885 233.204 440.529 233.204C441.493 233.204 442.259 233.584 442.827 234.344C443.399 235.1 443.685 236.212 443.685 237.68C443.685 239.14 443.401 240.248 442.833 241.004C442.269 241.756 441.499 242.132 440.523 242.132ZM440.529 241.04C441.121 241.04 441.565 240.78 441.861 240.26C442.157 239.736 442.305 238.878 442.305 237.686C442.305 236.47 442.155 235.596 441.855 235.064C441.555 234.528 441.111 234.26 440.523 234.26C439.939 234.26 439.493 234.53 439.185 235.07C438.877 235.606 438.723 236.478 438.723 237.686C438.723 238.874 438.875 239.73 439.179 240.254C439.487 240.778 439.937 241.04 440.529 241.04ZM447.906 242.132C446.926 242.132 446.154 241.758 445.59 241.01C445.026 240.258 444.744 239.152 444.744 237.692C444.744 236.712 444.874 235.89 445.134 235.226C445.394 234.558 445.76 234.054 446.232 233.714C446.708 233.374 447.268 233.204 447.912 233.204C448.876 233.204 449.642 233.584 450.21 234.344C450.782 235.1 451.068 236.212 451.068 237.68C451.068 239.14 450.784 240.248 450.216 241.004C449.652 241.756 448.882 242.132 447.906 242.132ZM447.912 241.04C448.504 241.04 448.948 240.78 449.244 240.26C449.54 239.736 449.688 238.878 449.688 237.686C449.688 236.47 449.538 235.596 449.238 235.064C448.938 234.528 448.494 234.26 447.906 234.26C447.322 234.26 446.876 234.53 446.568 235.07C446.26 235.606 446.106 236.478 446.106 237.686C446.106 238.874 446.258 239.73 446.562 240.254C446.87 240.778 447.32 241.04 447.912 241.04ZM455.289 242.132C454.309 242.132 453.537 241.758 452.973 241.01C452.409 240.258 452.127 239.152 452.127 237.692C452.127 236.712 452.257 235.89 452.517 235.226C452.777 234.558 453.143 234.054 453.615 233.714C454.091 233.374 454.651 233.204 455.295 233.204C456.259 233.204 457.025 233.584 457.593 234.344C458.165 235.1 458.451 236.212 458.451 237.68C458.451 239.14 458.167 240.248 457.599 241.004C457.035 241.756 456.265 242.132 455.289 242.132ZM455.295 241.04C455.887 241.04 456.331 240.78 456.627 240.26C456.923 239.736 457.071 238.878 457.071 237.686C457.071 236.47 456.921 235.596 456.621 235.064C456.321 234.528 455.877 234.26 455.289 234.26C454.705 234.26 454.259 234.53 453.951 235.07C453.643 235.606 453.489 236.478 453.489 237.686C453.489 238.874 453.641 239.73 453.945 240.254C454.253 240.778 454.703 241.04 455.295 241.04ZM459.658 242V240.452H461.14V242H459.658ZM465.59 242.132C464.61 242.132 463.838 241.758 463.274 241.01C462.71 240.258 462.428 239.152 462.428 237.692C462.428 236.712 462.558 235.89 462.818 235.226C463.078 234.558 463.444 234.054 463.916 233.714C464.392 233.374 464.952 233.204 465.596 233.204C466.56 233.204 467.326 233.584 467.894 234.344C468.466 235.1 468.752 236.212 468.752 237.68C468.752 239.14 468.468 240.248 467.9 241.004C467.336 241.756 466.566 242.132 465.59 242.132ZM465.596 241.04C466.188 241.04 466.632 240.78 466.928 240.26C467.224 239.736 467.372 238.878 467.372 237.686C467.372 236.47 467.222 235.596 466.922 235.064C466.622 234.528 466.178 234.26 465.59 234.26C465.006 234.26 464.56 234.53 464.252 235.07C463.944 235.606 463.79 236.478 463.79 237.686C463.79 238.874 463.942 239.73 464.246 240.254C464.554 240.778 465.004 241.04 465.596 241.04ZM472.973 242.132C471.993 242.132 471.221 241.758 470.657 241.01C470.093 240.258 469.811 239.152 469.811 237.692C469.811 236.712 469.941 235.89 470.201 235.226C470.461 234.558 470.827 234.054 471.299 233.714C471.775 233.374 472.335 233.204 472.979 233.204C473.943 233.204 474.709 233.584 475.277 234.344C475.849 235.1 476.135 236.212 476.135 237.68C476.135 239.14 475.851 240.248 475.283 241.004C474.719 241.756 473.949 242.132 472.973 242.132ZM472.979 241.04C473.571 241.04 474.015 240.78 474.311 240.26C474.607 239.736 474.755 238.878 474.755 237.686C474.755 236.47 474.605 235.596 474.305 235.064C474.005 234.528 473.561 234.26 472.973 234.26C472.389 234.26 471.943 234.53 471.635 235.07C471.327 235.606 471.173 236.478 471.173 237.686C471.173 238.874 471.325 239.73 471.629 240.254C471.937 240.778 472.387 241.04 472.979 241.04Z" fill="#92A03B"/>
<defs>
<linearGradient id="paint0_linear_1226_17426" x1="380" y1="40.5" x2="380" y2="360.5" gradientUnits="userSpaceOnUse">
<stop stop-color="#F7F6F2" stop-opacity="0"/>
<stop offset="0.95" stop-color="#F7F6F2"/>
</linearGradient>
<clipPath id="clip0_1226_17426">
<rect x="140" y="40.5" width="480" height="306" rx="12" fill="white"/>
</clipPath>
</defs>
</svg>
