<svg width="1920" height="1080" viewBox="0 0 1920 1080" fill="none" xmlns="http://www.w3.org/2000/svg">
<g clip-path="url(#clip0_7761_57717)">
<path d="M171 1103L171 280.047C171 269.056 179.255 260.145 189.436 260.145L522.557 260.145C532.742 260.145 541 250.885 541 239.464L540.834 -140" stroke="#000B31" stroke-width="2" stroke-miterlimit="10"/>
<path d="M1430.5 -25L1430 677.538C1430 688.528 1438.23 697.438 1448.38 697.438L1664.27 697.439C1674.43 697.439 1682.67 706.698 1682.67 718.119L1682.67 967.32C1682.67 978.741 1690.9 988 1701.06 988H1979" stroke="#000B31" stroke-width="2" stroke-miterlimit="10"/>
<path d="M1408 164C1408 160.686 1410.69 158 1414 158H1446C1449.31 158 1452 160.686 1452 164V276C1452 279.314 1449.31 282 1446 282H1414C1410.69 282 1408 279.314 1408 276V164Z" fill="#FFA422"/>
<path d="M1437.08 178.04C1436.86 178.04 1436.64 177.958 1436.46 177.783L1430 171.32L1423.54 177.783C1423.2 178.122 1422.64 178.122 1422.3 177.783C1421.96 177.445 1421.96 176.885 1422.3 176.547L1429.38 169.465C1429.72 169.127 1430.28 169.127 1430.62 169.465L1437.7 176.547C1438.04 176.885 1438.04 177.445 1437.7 177.783C1437.54 177.958 1437.3 178.04 1437.08 178.04Z" fill="#000B31"/>
<path d="M1430 190.792C1429.52 190.792 1429.12 190.395 1429.12 189.917V170.282C1429.12 169.803 1429.52 169.407 1430 169.407C1430.48 169.407 1430.88 169.803 1430.88 170.282V189.917C1430.88 190.395 1430.48 190.792 1430 190.792Z" fill="#000B31"/>
<path d="M1440.79 216.675C1438.1 212.44 1434.15 210.002 1430 210.002C1427.92 210.002 1425.91 210.608 1424.06 211.74C1422.22 212.883 1420.56 214.552 1419.21 216.675C1418.04 218.507 1418.04 221.482 1419.21 223.313C1421.9 227.56 1425.85 229.987 1430 229.987C1432.08 229.987 1434.1 229.38 1435.94 228.248C1437.78 227.105 1439.44 225.437 1440.79 223.313C1441.96 221.493 1441.96 218.507 1440.79 216.675ZM1430 224.713C1427.39 224.713 1425.29 222.602 1425.29 220C1425.29 217.398 1427.39 215.287 1430 215.287C1432.61 215.287 1434.71 217.398 1434.71 220C1434.71 222.602 1432.61 224.713 1430 224.713Z" fill="#000B31"/>
<path d="M1430 216.663C1428.17 216.663 1426.68 218.157 1426.68 220C1426.68 221.832 1428.17 223.325 1430 223.325C1431.83 223.325 1433.34 221.832 1433.34 220C1433.34 218.168 1431.83 216.663 1430 216.663Z" fill="#000B31"/>
<path d="M1434.89 248.333H1425.11C1420.87 248.333 1418.33 250.865 1418.33 255.112V264.877C1418.33 269.135 1420.87 271.667 1425.11 271.667H1434.88C1439.12 271.667 1441.66 269.135 1441.66 264.888V255.112C1441.67 250.865 1439.14 248.333 1434.89 248.333ZM1436.13 260.385C1436.13 260.863 1435.73 261.26 1435.25 261.26C1434.77 261.26 1434.38 260.863 1434.38 260.385V256.862L1425.37 265.868C1425.19 266.043 1424.97 266.125 1424.75 266.125C1424.53 266.125 1424.31 266.043 1424.13 265.868C1423.79 265.53 1423.79 264.97 1424.13 264.632L1433.14 255.625H1429.62C1429.14 255.625 1428.74 255.228 1428.74 254.75C1428.74 254.272 1429.14 253.875 1429.62 253.875H1435.25C1435.73 253.875 1436.13 254.272 1436.13 254.75V260.385Z" fill="#000B31"/>
<path d="M1936.5 323.5H1620.5C1609.08 323.5 1599.82 331.735 1599.82 341.892V533.33C1599.82 543.487 1590.56 551.722 1579.14 551.722L438.619 551.723C427.198 551.723 417.939 559.958 417.939 570.115L417.939 857.053C417.939 867.21 408.68 875.444 397.259 875.444H-6" stroke="#000B31" stroke-width="2" stroke-miterlimit="10"/>
<path d="M149 859C149 855.686 151.686 853 155 853H187C190.314 853 193 855.686 193 859V891C193 894.314 190.314 897 187 897H155C151.686 897 149 894.314 149 891V859Z" fill="#FFA422"/>
<path d="M173.835 882.957C173.613 882.957 173.392 882.875 173.217 882.7C172.878 882.362 172.878 881.802 173.217 881.463L179.68 875L173.217 868.537C172.878 868.198 172.878 867.638 173.217 867.3C173.555 866.962 174.115 866.962 174.453 867.3L181.535 874.382C181.873 874.72 181.873 875.28 181.535 875.618L174.453 882.7C174.278 882.875 174.057 882.957 173.835 882.957Z" fill="#000B31"/>
<path d="M180.718 875.875H161.083C160.605 875.875 160.208 875.478 160.208 875C160.208 874.522 160.605 874.125 161.083 874.125H180.718C181.197 874.125 181.593 874.522 181.593 875C181.593 875.478 181.197 875.875 180.718 875.875Z" fill="#000B31"/>
<path d="M201 859C201 855.686 203.686 853 207 853H321C324.314 853 327 855.686 327 859V891C327 894.314 324.314 897 321 897H207C203.686 897 201 894.314 201 891V859Z" fill="#85C8FF"/>
<path d="M214.91 882V867.54H219.56C221.32 867.54 222.65 867.863 223.55 868.51C224.457 869.157 224.91 870.09 224.91 871.31C224.91 872.077 224.71 872.733 224.31 873.28C223.917 873.827 223.223 874.277 222.23 874.63C222.797 874.75 223.273 874.923 223.66 875.15C224.053 875.377 224.367 875.643 224.6 875.95C224.84 876.25 225.01 876.583 225.11 876.95C225.217 877.317 225.27 877.703 225.27 878.11C225.27 879.417 224.803 880.393 223.87 881.04C222.943 881.68 221.557 882 219.71 882H214.91ZM216.76 880.46H219.69C220.897 880.46 221.813 880.263 222.44 879.87C223.073 879.47 223.39 878.857 223.39 878.03C223.39 877.423 223.233 876.933 222.92 876.56C222.613 876.18 222.197 875.903 221.67 875.73C221.143 875.557 220.557 875.47 219.91 875.47H216.76V880.46ZM216.76 873.9H219.91C220.29 873.9 220.667 873.863 221.04 873.79C221.413 873.717 221.757 873.59 222.07 873.41C222.383 873.23 222.637 872.99 222.83 872.69C223.023 872.383 223.12 872 223.12 871.54C223.12 870.7 222.797 870.08 222.15 869.68C221.51 869.273 220.677 869.07 219.65 869.07H216.76V873.9ZM230.558 882.13C229.998 882.13 229.545 882.053 229.198 881.9C228.858 881.747 228.595 881.54 228.408 881.28C228.228 881.02 228.105 880.723 228.038 880.39C227.978 880.05 227.948 879.7 227.948 879.34V867.14H229.768V879.16C229.768 879.68 229.868 880.07 230.068 880.33C230.275 880.59 230.561 880.733 230.928 880.76L231.488 880.77V881.97C231.335 882.017 231.175 882.053 231.008 882.08C230.841 882.113 230.691 882.13 230.558 882.13ZM237.654 882.2C236.701 882.2 235.868 881.997 235.154 881.59C234.448 881.177 233.898 880.573 233.504 879.78C233.111 878.987 232.914 878.017 232.914 876.87C232.914 875.79 233.098 874.843 233.464 874.03C233.831 873.217 234.368 872.587 235.074 872.14C235.781 871.687 236.644 871.46 237.664 871.46C238.618 871.46 239.444 871.67 240.144 872.09C240.844 872.503 241.388 873.113 241.774 873.92C242.168 874.727 242.364 875.71 242.364 876.87C242.364 877.923 242.184 878.85 241.824 879.65C241.464 880.45 240.934 881.077 240.234 881.53C239.541 881.977 238.681 882.2 237.654 882.2ZM237.664 880.74C238.278 880.74 238.798 880.583 239.224 880.27C239.651 879.957 239.974 879.507 240.194 878.92C240.421 878.333 240.534 877.637 240.534 876.83C240.534 876.09 240.434 875.427 240.234 874.84C240.041 874.247 239.734 873.777 239.314 873.43C238.894 873.083 238.344 872.91 237.664 872.91C237.038 872.91 236.508 873.067 236.074 873.38C235.641 873.687 235.311 874.133 235.084 874.72C234.864 875.307 234.754 876.01 234.754 876.83C234.754 877.557 234.851 878.217 235.044 878.81C235.244 879.403 235.558 879.873 235.984 880.22C236.418 880.567 236.978 880.74 237.664 880.74ZM248.983 882.2C248.05 882.2 247.223 881.997 246.503 881.59C245.79 881.183 245.23 880.583 244.823 879.79C244.423 878.997 244.223 878.023 244.223 876.87C244.223 875.79 244.406 874.847 244.773 874.04C245.146 873.227 245.686 872.593 246.393 872.14C247.106 871.687 247.97 871.46 248.983 871.46C249.723 871.46 250.386 871.603 250.973 871.89C251.566 872.17 252.053 872.57 252.433 873.09C252.813 873.61 253.046 874.223 253.133 874.93H251.493C251.433 874.57 251.293 874.24 251.073 873.94C250.86 873.64 250.576 873.4 250.223 873.22C249.876 873.04 249.466 872.95 248.993 872.95C248.106 872.95 247.383 873.27 246.823 873.91C246.27 874.55 245.993 875.53 245.993 876.85C245.993 878.043 246.246 879 246.753 879.72C247.266 880.433 248.02 880.79 249.013 880.79C249.486 880.79 249.9 880.7 250.253 880.52C250.606 880.333 250.89 880.09 251.103 879.79C251.316 879.483 251.453 879.157 251.513 878.81H253.123C253.036 879.503 252.8 880.103 252.413 880.61C252.033 881.117 251.546 881.51 250.953 881.79C250.366 882.063 249.71 882.2 248.983 882.2ZM255.585 882V867.14H257.425V876.83L262.285 871.66H264.405L260.675 875.6L264.665 882H262.705L259.465 876.81L257.425 878.92V882H255.585ZM270.506 882.2C269.573 882.2 268.746 881.997 268.026 881.59C267.313 881.183 266.753 880.583 266.346 879.79C265.946 878.997 265.746 878.023 265.746 876.87C265.746 875.79 265.93 874.847 266.296 874.04C266.67 873.227 267.21 872.593 267.916 872.14C268.63 871.687 269.493 871.46 270.506 871.46C271.246 871.46 271.91 871.603 272.496 871.89C273.09 872.17 273.576 872.57 273.956 873.09C274.336 873.61 274.57 874.223 274.656 874.93H273.016C272.956 874.57 272.816 874.24 272.596 873.94C272.383 873.64 272.1 873.4 271.746 873.22C271.4 873.04 270.99 872.95 270.516 872.95C269.63 872.95 268.906 873.27 268.346 873.91C267.793 874.55 267.516 875.53 267.516 876.85C267.516 878.043 267.77 879 268.276 879.72C268.79 880.433 269.543 880.79 270.536 880.79C271.01 880.79 271.423 880.7 271.776 880.52C272.13 880.333 272.413 880.09 272.626 879.79C272.84 879.483 272.976 879.157 273.036 878.81H274.646C274.56 879.503 274.323 880.103 273.936 880.61C273.556 881.117 273.07 881.51 272.476 881.79C271.89 882.063 271.233 882.2 270.506 882.2ZM277.108 882V867.14H278.908V873.18C279.081 872.893 279.315 872.627 279.608 872.38C279.901 872.127 280.258 871.923 280.678 871.77C281.098 871.61 281.585 871.53 282.138 871.53C282.811 871.53 283.421 871.657 283.968 871.91C284.515 872.157 284.948 872.51 285.268 872.97C285.588 873.43 285.748 873.977 285.748 874.61V882H283.898V874.98C283.898 874.36 283.685 873.883 283.258 873.55C282.838 873.21 282.288 873.04 281.608 873.04C281.148 873.04 280.715 873.117 280.308 873.27C279.901 873.417 279.571 873.643 279.318 873.95C279.071 874.25 278.948 874.633 278.948 875.1V882H277.108ZM291.493 882.2C290.819 882.2 290.226 882.083 289.713 881.85C289.206 881.61 288.806 881.267 288.513 880.82C288.226 880.373 288.083 879.833 288.083 879.2C288.083 878.053 288.483 877.2 289.283 876.64C290.083 876.08 291.366 875.78 293.133 875.74L294.973 875.69V874.88C294.973 874.247 294.783 873.747 294.403 873.38C294.023 873.007 293.436 872.82 292.643 872.82C292.049 872.827 291.526 872.967 291.073 873.24C290.619 873.513 290.329 873.96 290.203 874.58H288.573C288.613 873.907 288.799 873.34 289.133 872.88C289.473 872.413 289.949 872.06 290.563 871.82C291.176 871.58 291.899 871.46 292.733 871.46C293.633 871.46 294.379 871.587 294.973 871.84C295.573 872.093 296.019 872.467 296.313 872.96C296.613 873.453 296.763 874.06 296.763 874.78V882H295.183L295.043 880.06C294.649 880.867 294.143 881.427 293.523 881.74C292.909 882.047 292.233 882.2 291.493 882.2ZM292.043 880.87C292.396 880.87 292.743 880.807 293.083 880.68C293.429 880.553 293.743 880.383 294.023 880.17C294.309 879.95 294.539 879.707 294.713 879.44C294.886 879.167 294.973 878.887 294.973 878.6V876.83L293.443 876.86C292.649 876.873 291.989 876.953 291.463 877.1C290.936 877.247 290.539 877.477 290.273 877.79C290.006 878.103 289.873 878.513 289.873 879.02C289.873 879.6 290.076 880.053 290.483 880.38C290.889 880.707 291.409 880.87 292.043 880.87ZM299.697 882V871.66H301.487V882H299.697ZM299.647 869.47V867.55H301.537V869.47H299.647ZM304.706 882V871.66H306.496V873.16C306.662 872.873 306.892 872.603 307.186 872.35C307.486 872.097 307.846 871.893 308.266 871.74C308.692 871.587 309.182 871.51 309.736 871.51C310.389 871.51 310.989 871.64 311.536 871.9C312.089 872.16 312.529 872.567 312.856 873.12C313.189 873.667 313.356 874.373 313.356 875.24V882H311.506V875.42C311.506 874.613 311.292 874.017 310.866 873.63C310.446 873.237 309.899 873.04 309.226 873.04C308.759 873.04 308.322 873.117 307.916 873.27C307.509 873.417 307.179 873.643 306.926 873.95C306.672 874.25 306.546 874.63 306.546 875.09V882H304.706Z" fill="#000B31"/>
<rect x="519" y="98" width="44" height="44" rx="22" fill="#D1E454"/>
<path d="M545.888 108.333H536.112C531.865 108.333 529.333 110.865 529.333 115.112V124.877C529.333 129.135 531.865 131.667 536.112 131.667H545.877C550.123 131.667 552.655 129.135 552.655 124.888V115.112C552.667 110.865 550.135 108.333 545.888 108.333ZM546.577 117.317L539.962 123.932C539.798 124.095 539.577 124.188 539.343 124.188C539.11 124.188 538.888 124.095 538.725 123.932L535.423 120.63C535.085 120.292 535.085 119.732 535.423 119.393C535.762 119.055 536.322 119.055 536.66 119.393L539.343 122.077L545.34 116.08C545.678 115.742 546.238 115.742 546.577 116.08C546.915 116.418 546.915 116.967 546.577 117.317Z" fill="#000B31"/>
<rect x="1408" y="529" width="44" height="44" rx="22" fill="#FFD12F"/>
<path d="M1434.89 539.333H1425.11C1420.86 539.333 1418.33 541.865 1418.33 546.112V555.877C1418.33 560.135 1420.86 562.667 1425.11 562.667H1434.88C1439.12 562.667 1441.65 560.135 1441.65 555.888V546.112C1441.67 541.865 1439.13 539.333 1434.89 539.333ZM1426.63 556.717C1426.63 557.043 1426.37 557.3 1426.04 557.3H1422.79C1422.46 557.3 1422.21 557.043 1422.21 556.717V551.327C1422.21 550.592 1422.8 549.997 1423.54 549.997H1426.04C1426.37 549.997 1426.63 550.253 1426.63 550.58V556.717ZM1432.2 556.717C1432.2 557.043 1431.95 557.3 1431.62 557.3H1428.37C1428.04 557.3 1427.78 557.043 1427.78 556.717V546.03C1427.78 545.295 1428.38 544.7 1429.11 544.7H1430.89C1431.62 544.7 1432.22 545.295 1432.22 546.03V556.717H1432.2ZM1437.79 556.717C1437.79 557.043 1437.54 557.3 1437.21 557.3H1433.95C1433.63 557.3 1433.37 557.043 1433.37 556.717V552.575C1433.37 552.248 1433.63 551.992 1433.95 551.992H1436.46C1437.2 551.992 1437.79 552.587 1437.79 553.322V556.717Z" fill="#000B31"/>
<path d="M1688 308C1688 304.686 1690.69 302 1694 302H1833C1836.31 302 1839 304.686 1839 308V340C1839 343.314 1836.31 346 1833 346H1694C1690.69 346 1688 343.314 1688 340V308Z" fill="#C1BBFE"/>
<path d="M1705.13 331V318.24H1700.46V316.54H1711.4V318.24H1706.99V331H1705.13ZM1712.76 331V320.66H1714.52V322.65C1714.69 322.157 1714.94 321.75 1715.25 321.43C1715.56 321.103 1715.92 320.86 1716.32 320.7C1716.73 320.54 1717.15 320.46 1717.58 320.46C1717.73 320.46 1717.88 320.47 1718.03 320.49C1718.18 320.51 1718.29 320.543 1718.37 320.59V322.38C1718.27 322.333 1718.14 322.303 1717.98 322.29C1717.83 322.27 1717.7 322.26 1717.59 322.26C1717.18 322.233 1716.79 322.26 1716.43 322.34C1716.07 322.413 1715.75 322.543 1715.48 322.73C1715.21 322.917 1714.99 323.163 1714.83 323.47C1714.68 323.77 1714.6 324.137 1714.6 324.57V331H1712.76ZM1723.1 331.2C1722.43 331.2 1721.84 331.083 1721.32 330.85C1720.82 330.61 1720.42 330.267 1720.12 329.82C1719.84 329.373 1719.69 328.833 1719.69 328.2C1719.69 327.053 1720.09 326.2 1720.89 325.64C1721.69 325.08 1722.98 324.78 1724.74 324.74L1726.58 324.69V323.88C1726.58 323.247 1726.39 322.747 1726.01 322.38C1725.63 322.007 1725.05 321.82 1724.25 321.82C1723.66 321.827 1723.14 321.967 1722.68 322.24C1722.23 322.513 1721.94 322.96 1721.81 323.58H1720.18C1720.22 322.907 1720.41 322.34 1720.74 321.88C1721.08 321.413 1721.56 321.06 1722.17 320.82C1722.79 320.58 1723.51 320.46 1724.34 320.46C1725.24 320.46 1725.99 320.587 1726.58 320.84C1727.18 321.093 1727.63 321.467 1727.92 321.96C1728.22 322.453 1728.37 323.06 1728.37 323.78V331H1726.79L1726.65 329.06C1726.26 329.867 1725.75 330.427 1725.13 330.74C1724.52 331.047 1723.84 331.2 1723.1 331.2ZM1723.65 329.87C1724.01 329.87 1724.35 329.807 1724.69 329.68C1725.04 329.553 1725.35 329.383 1725.63 329.17C1725.92 328.95 1726.15 328.707 1726.32 328.44C1726.5 328.167 1726.58 327.887 1726.58 327.6V325.83L1725.05 325.86C1724.26 325.873 1723.6 325.953 1723.07 326.1C1722.55 326.247 1722.15 326.477 1721.88 326.79C1721.62 327.103 1721.48 327.513 1721.48 328.02C1721.48 328.6 1721.69 329.053 1722.09 329.38C1722.5 329.707 1723.02 329.87 1723.65 329.87ZM1731.26 331V320.66H1733.05V322.16C1733.21 321.873 1733.44 321.603 1733.74 321.35C1734.04 321.097 1734.4 320.893 1734.82 320.74C1735.24 320.587 1735.73 320.51 1736.29 320.51C1736.94 320.51 1737.54 320.64 1738.09 320.9C1738.64 321.16 1739.08 321.567 1739.41 322.12C1739.74 322.667 1739.91 323.373 1739.91 324.24V331H1738.06V324.42C1738.06 323.613 1737.84 323.017 1737.42 322.63C1737 322.237 1736.45 322.04 1735.78 322.04C1735.31 322.04 1734.87 322.117 1734.47 322.27C1734.06 322.417 1733.73 322.643 1733.48 322.95C1733.22 323.25 1733.1 323.63 1733.1 324.09V331H1731.26ZM1746.42 331.2C1745.7 331.2 1745.03 331.09 1744.41 330.87C1743.8 330.643 1743.29 330.293 1742.88 329.82C1742.48 329.34 1742.22 328.73 1742.12 327.99H1743.8C1743.89 328.397 1744.06 328.737 1744.3 329.01C1744.55 329.277 1744.85 329.48 1745.21 329.62C1745.58 329.753 1745.98 329.82 1746.41 329.82C1747.11 329.82 1747.68 329.69 1748.1 329.43C1748.53 329.17 1748.74 328.77 1748.74 328.23C1748.74 327.85 1748.63 327.547 1748.4 327.32C1748.18 327.087 1747.84 326.917 1747.36 326.81L1745.22 326.28C1744.39 326.08 1743.72 325.767 1743.22 325.34C1742.73 324.913 1742.48 324.317 1742.47 323.55C1742.47 322.943 1742.62 322.41 1742.91 321.95C1743.21 321.49 1743.64 321.127 1744.22 320.86C1744.81 320.593 1745.54 320.46 1746.41 320.46C1747.54 320.46 1748.45 320.713 1749.13 321.22C1749.82 321.72 1750.18 322.457 1750.21 323.43H1748.57C1748.51 322.937 1748.29 322.547 1747.91 322.26C1747.54 321.967 1747.03 321.82 1746.39 321.82C1745.74 321.82 1745.2 321.953 1744.78 322.22C1744.37 322.48 1744.16 322.887 1744.16 323.44C1744.16 323.807 1744.31 324.097 1744.6 324.31C1744.9 324.517 1745.34 324.69 1745.9 324.83L1747.98 325.35C1748.46 325.477 1748.85 325.643 1749.16 325.85C1749.48 326.057 1749.72 326.287 1749.9 326.54C1750.08 326.793 1750.21 327.06 1750.28 327.34C1750.36 327.613 1750.4 327.877 1750.4 328.13C1750.4 328.763 1750.25 329.31 1749.93 329.77C1749.62 330.223 1749.17 330.577 1748.57 330.83C1747.98 331.077 1747.26 331.2 1746.42 331.2ZM1752.82 334.22V320.66H1754.66L1754.68 322.46C1754.8 322.247 1754.95 322.023 1755.14 321.79C1755.33 321.557 1755.57 321.34 1755.84 321.14C1756.12 320.94 1756.44 320.777 1756.81 320.65C1757.18 320.523 1757.61 320.46 1758.08 320.46C1758.91 320.46 1759.63 320.65 1760.26 321.03C1760.89 321.403 1761.39 321.977 1761.74 322.75C1762.09 323.523 1762.27 324.503 1762.27 325.69C1762.27 326.877 1762.1 327.88 1761.75 328.7C1761.41 329.513 1760.92 330.133 1760.27 330.56C1759.62 330.987 1758.84 331.2 1757.93 331.2C1757.47 331.2 1757.06 331.133 1756.7 331C1756.35 330.873 1756.04 330.707 1755.77 330.5C1755.51 330.287 1755.29 330.06 1755.11 329.82C1754.94 329.58 1754.79 329.35 1754.68 329.13V334.22H1752.82ZM1757.58 329.76C1758.43 329.76 1759.13 329.437 1759.67 328.79C1760.21 328.137 1760.48 327.123 1760.48 325.75C1760.48 324.57 1760.23 323.633 1759.74 322.94C1759.25 322.247 1758.53 321.9 1757.58 321.9C1756.62 321.9 1755.89 322.257 1755.4 322.97C1754.91 323.677 1754.66 324.603 1754.66 325.75C1754.66 326.49 1754.77 327.163 1754.99 327.77C1755.21 328.377 1755.54 328.86 1755.97 329.22C1756.4 329.58 1756.94 329.76 1757.58 329.76ZM1767.52 331.2C1766.84 331.2 1766.25 331.083 1765.74 330.85C1765.23 330.61 1764.83 330.267 1764.54 329.82C1764.25 329.373 1764.11 328.833 1764.11 328.2C1764.11 327.053 1764.51 326.2 1765.31 325.64C1766.11 325.08 1767.39 324.78 1769.16 324.74L1771 324.69V323.88C1771 323.247 1770.81 322.747 1770.43 322.38C1770.05 322.007 1769.46 321.82 1768.67 321.82C1768.07 321.827 1767.55 321.967 1767.1 322.24C1766.64 322.513 1766.35 322.96 1766.23 323.58H1764.6C1764.64 322.907 1764.82 322.34 1765.16 321.88C1765.5 321.413 1765.97 321.06 1766.59 320.82C1767.2 320.58 1767.92 320.46 1768.76 320.46C1769.66 320.46 1770.4 320.587 1771 320.84C1771.6 321.093 1772.04 321.467 1772.34 321.96C1772.64 322.453 1772.79 323.06 1772.79 323.78V331H1771.21L1771.07 329.06C1770.67 329.867 1770.17 330.427 1769.55 330.74C1768.93 331.047 1768.26 331.2 1767.52 331.2ZM1768.07 329.87C1768.42 329.87 1768.77 329.807 1769.11 329.68C1769.45 329.553 1769.77 329.383 1770.05 329.17C1770.33 328.95 1770.56 328.707 1770.74 328.44C1770.91 328.167 1771 327.887 1771 327.6V325.83L1769.47 325.86C1768.67 325.873 1768.01 325.953 1767.49 326.1C1766.96 326.247 1766.56 326.477 1766.3 326.79C1766.03 327.103 1765.9 327.513 1765.9 328.02C1765.9 328.6 1766.1 329.053 1766.51 329.38C1766.91 329.707 1767.43 329.87 1768.07 329.87ZM1775.67 331V320.66H1777.43V322.65C1777.6 322.157 1777.85 321.75 1778.16 321.43C1778.47 321.103 1778.83 320.86 1779.23 320.7C1779.64 320.54 1780.06 320.46 1780.49 320.46C1780.64 320.46 1780.79 320.47 1780.94 320.49C1781.09 320.51 1781.2 320.543 1781.28 320.59V322.38C1781.18 322.333 1781.05 322.303 1780.89 322.29C1780.74 322.27 1780.61 322.26 1780.5 322.26C1780.09 322.233 1779.7 322.26 1779.34 322.34C1778.98 322.413 1778.66 322.543 1778.39 322.73C1778.12 322.917 1777.9 323.163 1777.74 323.47C1777.59 323.77 1777.51 324.137 1777.51 324.57V331H1775.67ZM1787.7 331.2C1786.74 331.2 1785.89 330.99 1785.16 330.57C1784.42 330.15 1783.85 329.547 1783.44 328.76C1783.02 327.973 1782.82 327.03 1782.82 325.93C1782.82 324.843 1783 323.89 1783.38 323.07C1783.75 322.25 1784.29 321.61 1785 321.15C1785.71 320.69 1786.57 320.46 1787.57 320.46C1788.54 320.46 1789.36 320.67 1790.04 321.09C1790.71 321.51 1791.22 322.103 1791.57 322.87C1791.92 323.63 1792.1 324.533 1792.1 325.58V326.26H1784.69C1784.69 326.913 1784.79 327.507 1785.01 328.04C1785.23 328.567 1785.56 328.987 1786 329.3C1786.44 329.613 1786.99 329.77 1787.67 329.77C1788.33 329.77 1788.89 329.617 1789.37 329.31C1789.85 329.003 1790.15 328.56 1790.29 327.98H1792.03C1791.91 328.68 1791.63 329.27 1791.19 329.75C1790.75 330.23 1790.23 330.593 1789.62 330.84C1789.01 331.08 1788.37 331.2 1787.7 331.2ZM1784.7 325.01H1790.32C1790.32 324.417 1790.22 323.883 1790.02 323.41C1789.82 322.93 1789.51 322.553 1789.1 322.28C1788.69 322 1788.18 321.86 1787.56 321.86C1786.91 321.86 1786.37 322.017 1785.95 322.33C1785.52 322.637 1785.2 323.033 1785 323.52C1784.79 324 1784.69 324.497 1784.7 325.01ZM1794.66 331V320.66H1796.45V322.16C1796.61 321.873 1796.84 321.603 1797.14 321.35C1797.44 321.097 1797.8 320.893 1798.22 320.74C1798.64 320.587 1799.13 320.51 1799.69 320.51C1800.34 320.51 1800.94 320.64 1801.49 320.9C1802.04 321.16 1802.48 321.567 1802.81 322.12C1803.14 322.667 1803.31 323.373 1803.31 324.24V331H1801.46V324.42C1801.46 323.613 1801.24 323.017 1800.82 322.63C1800.4 322.237 1799.85 322.04 1799.18 322.04C1798.71 322.04 1798.27 322.117 1797.87 322.27C1797.46 322.417 1797.13 322.643 1796.88 322.95C1796.62 323.25 1796.5 323.63 1796.5 324.09V331H1794.66ZM1810.36 331.2C1809.42 331.2 1808.6 330.997 1807.88 330.59C1807.16 330.183 1806.6 329.583 1806.2 328.79C1805.8 327.997 1805.6 327.023 1805.6 325.87C1805.6 324.79 1805.78 323.847 1806.15 323.04C1806.52 322.227 1807.06 321.593 1807.77 321.14C1808.48 320.687 1809.34 320.46 1810.36 320.46C1811.1 320.46 1811.76 320.603 1812.35 320.89C1812.94 321.17 1813.43 321.57 1813.81 322.09C1814.19 322.61 1814.42 323.223 1814.51 323.93H1812.87C1812.81 323.57 1812.67 323.24 1812.45 322.94C1812.23 322.64 1811.95 322.4 1811.6 322.22C1811.25 322.04 1810.84 321.95 1810.37 321.95C1809.48 321.95 1808.76 322.27 1808.2 322.91C1807.64 323.55 1807.37 324.53 1807.37 325.85C1807.37 327.043 1807.62 328 1808.13 328.72C1808.64 329.433 1809.39 329.79 1810.39 329.79C1810.86 329.79 1811.27 329.7 1811.63 329.52C1811.98 329.333 1812.26 329.09 1812.48 328.79C1812.69 328.483 1812.83 328.157 1812.89 327.81H1814.5C1814.41 328.503 1814.17 329.103 1813.79 329.61C1813.41 330.117 1812.92 330.51 1812.33 330.79C1811.74 331.063 1811.08 331.2 1810.36 331.2ZM1817.97 334.3C1817.36 334.3 1816.95 334.257 1816.72 334.17C1816.49 334.083 1816.38 334.04 1816.38 334.04V332.84L1817.44 332.86C1817.82 332.873 1818.14 332.847 1818.39 332.78C1818.64 332.713 1818.85 332.623 1819 332.51C1819.15 332.397 1819.27 332.27 1819.35 332.13C1819.44 331.99 1819.51 331.857 1819.56 331.73L1819.92 330.75L1815.88 320.66H1817.75L1820.8 328.64L1823.83 320.66H1825.64L1821.29 331.78C1821.02 332.433 1820.71 332.943 1820.38 333.31C1820.05 333.677 1819.69 333.933 1819.28 334.08C1818.88 334.227 1818.44 334.3 1817.97 334.3Z" fill="#000B31"/>
<rect x="1661" y="791" width="44" height="44" rx="22" fill="#C1BBFE"/>
<path d="M1689.45 808.065C1689.37 808.053 1689.29 808.053 1689.21 808.065C1687.4 808.007 1685.96 806.525 1685.96 804.705C1685.96 802.85 1687.47 801.333 1689.33 801.333C1691.19 801.333 1692.71 802.838 1692.71 804.705C1692.69 806.525 1691.26 808.007 1689.45 808.065Z" fill="#000B31"/>
<path d="M1693.26 816.15C1691.95 817.025 1690.12 817.352 1688.43 817.13C1688.87 816.174 1689.1 815.112 1689.12 813.992C1689.12 812.825 1688.86 811.717 1688.37 810.749C1690.1 810.515 1691.93 810.842 1693.25 811.717C1695.09 812.93 1695.09 814.925 1693.26 816.15Z" fill="#000B31"/>
<path d="M1676.51 808.065C1676.6 808.053 1676.68 808.053 1676.76 808.065C1678.57 808.007 1680 806.525 1680 804.705C1680 802.838 1678.5 801.333 1676.63 801.333C1674.78 801.333 1673.27 802.838 1673.27 804.705C1673.27 806.525 1674.71 808.007 1676.51 808.065Z" fill="#000B31"/>
<path d="M1676.64 813.992C1676.64 815.124 1676.89 816.197 1677.33 817.166C1675.69 817.341 1673.97 816.991 1672.71 816.162C1670.87 814.937 1670.87 812.942 1672.71 811.717C1673.96 810.877 1675.72 810.539 1677.38 810.726C1676.9 811.706 1676.64 812.814 1676.64 813.992Z" fill="#000B31"/>
<path d="M1683.14 817.515C1683.05 817.503 1682.94 817.503 1682.84 817.515C1680.69 817.445 1678.98 815.683 1678.98 813.513C1678.99 811.297 1680.77 809.5 1683 809.5C1685.22 809.5 1687.01 811.297 1687.01 813.513C1687 815.683 1685.3 817.445 1683.14 817.515Z" fill="#000B31"/>
<path d="M1679.35 819.931C1677.59 821.109 1677.59 823.046 1679.35 824.212C1681.36 825.554 1684.65 825.554 1686.65 824.212C1688.41 823.034 1688.41 821.097 1686.65 819.931C1684.66 818.589 1681.37 818.589 1679.35 819.931Z" fill="#000B31"/>
<path d="M1661 849C1661 845.686 1663.69 843 1667 843H1699C1702.31 843 1705 845.686 1705 849V881C1705 884.314 1702.31 887 1699 887H1667C1663.69 887 1661 884.314 1661 881V849Z" fill="#D1E454"/>
<path d="M1683 875.792C1682.78 875.792 1682.56 875.71 1682.38 875.535L1675.3 868.453C1674.96 868.115 1674.96 867.555 1675.3 867.217C1675.64 866.878 1676.2 866.878 1676.54 867.217L1683 873.68L1689.46 867.217C1689.8 866.878 1690.36 866.878 1690.7 867.217C1691.04 867.555 1691.04 868.115 1690.7 868.453L1683.62 875.535C1683.44 875.71 1683.22 875.792 1683 875.792Z" fill="#000B31"/>
<path d="M1683 875.593C1682.52 875.593 1682.12 875.197 1682.12 874.718V855.083C1682.12 854.605 1682.52 854.208 1683 854.208C1683.48 854.208 1683.88 854.605 1683.88 855.083V874.718C1683.88 875.197 1683.48 875.593 1683 875.593Z" fill="#000B31"/>
<path d="M149 511C149 507.686 151.686 505 155 505H187C190.314 505 193 507.686 193 511V543C193 546.314 190.314 549 187 549H155C151.686 549 149 546.314 149 543V511Z" fill="#85C8FF"/>
<path d="M178.583 517.795L172.762 515.613C171.793 515.252 170.207 515.252 169.238 515.613L163.417 517.795C162.075 518.297 160.978 519.883 160.978 521.307V529.975C160.978 531.352 161.888 533.16 162.997 533.988L168.013 537.733C169.658 538.97 172.365 538.97 174.01 537.733L179.027 533.988C180.135 533.16 181.045 531.352 181.045 529.975V521.307C181.022 519.883 179.925 518.297 178.583 517.795ZM170.918 521.202C172.295 521.202 173.415 522.322 173.415 523.698C173.415 525.052 172.353 526.137 171.012 526.183H170.988H170.965C170.942 526.183 170.918 526.183 170.895 526.183C169.495 526.137 168.445 525.052 168.445 523.698C168.433 522.322 169.553 521.202 170.918 521.202ZM173.555 532.087C172.843 532.553 171.922 532.798 171 532.798C170.078 532.798 169.145 532.565 168.445 532.087C167.78 531.643 167.418 531.037 167.407 530.372C167.407 529.718 167.78 529.088 168.445 528.645C169.857 527.712 172.155 527.712 173.567 528.645C174.232 529.088 174.605 529.695 174.605 530.36C174.593 531.013 174.22 531.643 173.555 532.087Z" fill="#000B31"/>
<path d="M302 244C302 240.686 304.686 238 308 238H404C407.314 238 410 240.686 410 244V276C410 279.314 407.314 282 404 282H308C304.686 282 302 279.314 302 276V244Z" fill="#FFD12F"/>
<path d="M315.91 267V252.54H324.92L324.91 254.16H317.81V258.94H324.19V260.54H317.81V267H315.91ZM327.455 267V256.66H329.245V267H327.455ZM327.405 254.47V252.55H329.295V254.47H327.405ZM332.464 267V256.66H334.254V258.16C334.42 257.873 334.65 257.603 334.944 257.35C335.244 257.097 335.604 256.893 336.024 256.74C336.45 256.587 336.94 256.51 337.494 256.51C338.147 256.51 338.747 256.64 339.294 256.9C339.847 257.16 340.287 257.567 340.614 258.12C340.947 258.667 341.114 259.373 341.114 260.24V267H339.264V260.42C339.264 259.613 339.05 259.017 338.624 258.63C338.204 258.237 337.657 258.04 336.984 258.04C336.517 258.04 336.08 258.117 335.674 258.27C335.267 258.417 334.937 258.643 334.684 258.95C334.43 259.25 334.304 259.63 334.304 260.09V267H332.464ZM346.868 267.2C346.194 267.2 345.601 267.083 345.088 266.85C344.581 266.61 344.181 266.267 343.888 265.82C343.601 265.373 343.458 264.833 343.458 264.2C343.458 263.053 343.858 262.2 344.658 261.64C345.458 261.08 346.741 260.78 348.508 260.74L350.348 260.69V259.88C350.348 259.247 350.158 258.747 349.778 258.38C349.398 258.007 348.811 257.82 348.018 257.82C347.424 257.827 346.901 257.967 346.448 258.24C345.994 258.513 345.704 258.96 345.578 259.58H343.948C343.988 258.907 344.174 258.34 344.508 257.88C344.848 257.413 345.324 257.06 345.938 256.82C346.551 256.58 347.274 256.46 348.108 256.46C349.008 256.46 349.754 256.587 350.348 256.84C350.948 257.093 351.394 257.467 351.688 257.96C351.988 258.453 352.138 259.06 352.138 259.78V267H350.558L350.418 265.06C350.024 265.867 349.518 266.427 348.898 266.74C348.284 267.047 347.608 267.2 346.868 267.2ZM347.418 265.87C347.771 265.87 348.118 265.807 348.458 265.68C348.804 265.553 349.118 265.383 349.398 265.17C349.684 264.95 349.914 264.707 350.088 264.44C350.261 264.167 350.348 263.887 350.348 263.6V261.83L348.818 261.86C348.024 261.873 347.364 261.953 346.838 262.1C346.311 262.247 345.914 262.477 345.648 262.79C345.381 263.103 345.248 263.513 345.248 264.02C345.248 264.6 345.451 265.053 345.858 265.38C346.264 265.707 346.784 265.87 347.418 265.87ZM355.022 267V256.66H356.812V258.16C356.979 257.873 357.209 257.603 357.502 257.35C357.802 257.097 358.162 256.893 358.582 256.74C359.009 256.587 359.499 256.51 360.052 256.51C360.706 256.51 361.306 256.64 361.852 256.9C362.406 257.16 362.846 257.567 363.172 258.12C363.506 258.667 363.672 259.373 363.672 260.24V267H361.822V260.42C361.822 259.613 361.609 259.017 361.182 258.63C360.762 258.237 360.216 258.04 359.542 258.04C359.076 258.04 358.639 258.117 358.232 258.27C357.826 258.417 357.496 258.643 357.242 258.95C356.989 259.25 356.862 259.63 356.862 260.09V267H355.022ZM370.725 267.2C369.792 267.2 368.965 266.997 368.245 266.59C367.532 266.183 366.972 265.583 366.565 264.79C366.165 263.997 365.965 263.023 365.965 261.87C365.965 260.79 366.148 259.847 366.515 259.04C366.888 258.227 367.428 257.593 368.135 257.14C368.848 256.687 369.712 256.46 370.725 256.46C371.465 256.46 372.128 256.603 372.715 256.89C373.308 257.17 373.795 257.57 374.175 258.09C374.555 258.61 374.788 259.223 374.875 259.93H373.235C373.175 259.57 373.035 259.24 372.815 258.94C372.602 258.64 372.318 258.4 371.965 258.22C371.618 258.04 371.208 257.95 370.735 257.95C369.848 257.95 369.125 258.27 368.565 258.91C368.012 259.55 367.735 260.53 367.735 261.85C367.735 263.043 367.988 264 368.495 264.72C369.008 265.433 369.762 265.79 370.755 265.79C371.228 265.79 371.642 265.7 371.995 265.52C372.348 265.333 372.632 265.09 372.845 264.79C373.058 264.483 373.195 264.157 373.255 263.81H374.865C374.778 264.503 374.542 265.103 374.155 265.61C373.775 266.117 373.288 266.51 372.695 266.79C372.108 267.063 371.452 267.2 370.725 267.2ZM381.755 267.2C380.795 267.2 379.949 266.99 379.215 266.57C378.482 266.15 377.909 265.547 377.495 264.76C377.082 263.973 376.875 263.03 376.875 261.93C376.875 260.843 377.062 259.89 377.435 259.07C377.809 258.25 378.349 257.61 379.055 257.15C379.769 256.69 380.625 256.46 381.625 256.46C382.599 256.46 383.422 256.67 384.095 257.09C384.769 257.51 385.279 258.103 385.625 258.87C385.979 259.63 386.155 260.533 386.155 261.58V262.26H378.745C378.745 262.913 378.852 263.507 379.065 264.04C379.285 264.567 379.615 264.987 380.055 265.3C380.495 265.613 381.052 265.77 381.725 265.77C382.385 265.77 382.952 265.617 383.425 265.31C383.905 265.003 384.212 264.56 384.345 263.98H386.085C385.965 264.68 385.685 265.27 385.245 265.75C384.812 266.23 384.289 266.593 383.675 266.84C383.069 267.08 382.429 267.2 381.755 267.2ZM378.755 261.01H384.375C384.375 260.417 384.275 259.883 384.075 259.41C383.875 258.93 383.569 258.553 383.155 258.28C382.749 258 382.235 257.86 381.615 257.86C380.969 257.86 380.432 258.017 380.005 258.33C379.579 258.637 379.262 259.033 379.055 259.52C378.849 260 378.749 260.497 378.755 261.01ZM392.375 267.2C391.655 267.2 390.985 267.09 390.365 266.87C389.752 266.643 389.242 266.293 388.835 265.82C388.428 265.34 388.175 264.73 388.075 263.99H389.755C389.842 264.397 390.008 264.737 390.255 265.01C390.502 265.277 390.805 265.48 391.165 265.62C391.532 265.753 391.932 265.82 392.365 265.82C393.065 265.82 393.628 265.69 394.055 265.43C394.482 265.17 394.695 264.77 394.695 264.23C394.695 263.85 394.582 263.547 394.355 263.32C394.135 263.087 393.788 262.917 393.315 262.81L391.175 262.28C390.342 262.08 389.675 261.767 389.175 261.34C388.682 260.913 388.432 260.317 388.425 259.55C388.425 258.943 388.572 258.41 388.865 257.95C389.158 257.49 389.595 257.127 390.175 256.86C390.762 256.593 391.492 256.46 392.365 256.46C393.492 256.46 394.398 256.713 395.085 257.22C395.772 257.72 396.132 258.457 396.165 259.43H394.525C394.458 258.937 394.238 258.547 393.865 258.26C393.492 257.967 392.985 257.82 392.345 257.82C391.692 257.82 391.155 257.953 390.735 258.22C390.322 258.48 390.115 258.887 390.115 259.44C390.115 259.807 390.262 260.097 390.555 260.31C390.855 260.517 391.288 260.69 391.855 260.83L393.935 261.35C394.408 261.477 394.802 261.643 395.115 261.85C395.428 262.057 395.675 262.287 395.855 262.54C396.035 262.793 396.162 263.06 396.235 263.34C396.315 263.613 396.355 263.877 396.355 264.13C396.355 264.763 396.198 265.31 395.885 265.77C395.572 266.223 395.118 266.577 394.525 266.83C393.932 267.077 393.215 267.2 392.375 267.2Z" fill="#000B31"/>
</g>
<defs>
<clipPath id="clip0_7761_57717">
<rect width="1920" height="1080" fill="white"/>
</clipPath>
</defs>
</svg>
