<svg width="512" height="512" viewBox="0 0 512 512" fill="none" xmlns="http://www.w3.org/2000/svg">
<path d="M158.887 316.911C158.887 332.103 159.458 351.128 163.408 359.576C167.382 370.272 172.475 373.656 190.013 378.72L193.415 379.288C202.482 381.536 207.003 386.6 207.003 395.048C207.003 405.176 200.197 410.24 186.61 410.24H60.3935C46.8058 410.24 40 405.176 40 395.048C40 387.168 44.5213 382.104 53.0166 379.288L56.4195 378.72C81.3344 374.768 87.569 350.134 87.569 316.911V132.996C87.569 100.908 80.2159 89.6439 59.2513 84.5799L54.73 84.012C47.3769 82.3318 42.2845 75.564 42.2845 68.2519C42.2607 58.1002 49.0664 53.0361 62.0831 53.0361H246.101C289.125 53.0361 318.013 58.6681 342.928 73.8602C371.793 91.3241 389.355 123.98 389.355 159.996C389.355 196.012 371.793 228.692 340.668 246.7C323.106 258.532 306.139 261.892 268.755 264.708C295.93 275.972 307.257 283.852 322.535 297.932C334.433 309.764 344.618 320.46 367.272 351.98C387.094 379.004 394.448 389.7 405.203 398.716C411.438 404.916 416.531 408.844 423.313 413.908C434.069 421.22 439.732 424.036 451.059 425.74C467.479 427.988 472 431.372 472 442.068C472 453.332 464.076 458.964 447.656 458.964H424.455C406.893 458.964 389.355 453.9 371.793 443.204C363.298 437.004 354.803 430.828 346.307 423.492C329.888 409.98 323.653 403.212 295.359 368.876L269.326 336.788L242.722 304.132C221.781 278.788 201.387 265.844 177.044 265.844C171.951 265.844 166.288 266.412 158.934 266.412V316.911H158.887ZM159.458 120.028V202.78C159.458 226.988 163.432 233.756 178.709 238.252C189.465 242.204 207.027 243.316 226.826 243.316C280.605 243.316 316.276 210.66 316.276 161.108C316.276 106.493 280.034 76.6525 211.525 76.6525C187.752 76.6525 172.451 81.1487 165.669 89.5966C160.576 95.7965 159.434 101.973 159.434 120.005L159.458 120.028Z" fill="#F7F6F2"/>
</svg>
